solid ascii
  facet normal -3.090821e-17 1.000000e+00 2.312965e-16
    outer loop
      vertex   1.048000e+03 1.500000e+02 1.200000e+02
      vertex   1.946000e+03 1.500000e+02 1.200000e+02
      vertex   1.946000e+03 1.500000e+02 0.000000e+00
    endloop
  endfacet
  facet normal -6.181643e-17 1.000000e+00 9.305912e-32
    outer loop
      vertex   1.946000e+03 1.500000e+02 0.000000e+00
      vertex   1.048000e+03 1.500000e+02 0.000000e+00
      vertex   1.048000e+03 1.500000e+02 1.200000e+02
    endloop
  endfacet
  facet normal -3.090821e-17 1.000000e+00 0.000000e+00
    outer loop
      vertex   1.500000e+02 1.500000e+02 1.200000e+02
      vertex   1.048000e+03 1.500000e+02 1.200000e+02
      vertex   1.048000e+03 1.500000e+02 0.000000e+00
    endloop
  endfacet
  facet normal -3.090821e-17 1.000000e+00 0.000000e+00
    outer loop
      vertex   1.048000e+03 1.500000e+02 0.000000e+00
      vertex   1.500000e+02 1.500000e+02 0.000000e+00
      vertex   1.500000e+02 1.500000e+02 1.200000e+02
    endloop
  endfacet
  facet normal 1.000000e+00 2.794185e-17 2.569333e-32
    outer loop
      vertex   1.500000e+02 2.136667e+03 0.000000e+00
      vertex   1.500000e+02 3.130000e+03 0.000000e+00
      vertex   1.500000e+02 3.130000e+03 1.200000e+02
    endloop
  endfacet
  facet normal 1.000000e+00 2.794185e-17 2.569333e-32
    outer loop
      vertex   1.500000e+02 3.130000e+03 1.200000e+02
      vertex   1.500000e+02 2.136667e+03 1.200000e+02
      vertex   1.500000e+02 2.136667e+03 0.000000e+00
    endloop
  endfacet
  facet normal 1.000000e+00 5.588371e-17 5.138666e-32
    outer loop
      vertex   1.500000e+02 1.143333e+03 0.000000e+00
      vertex   1.500000e+02 2.136667e+03 0.000000e+00
      vertex   1.500000e+02 2.136667e+03 1.200000e+02
    endloop
  endfacet
  facet normal 1.000000e+00 5.588371e-17 5.138666e-32
    outer loop
      vertex   1.500000e+02 2.136667e+03 1.200000e+02
      vertex   1.500000e+02 1.143333e+03 1.200000e+02
      vertex   1.500000e+02 1.143333e+03 0.000000e+00
    endloop
  endfacet
  facet normal 1.000000e+00 2.794185e-17 2.569333e-32
    outer loop
      vertex   1.500000e+02 1.500000e+02 0.000000e+00
      vertex   1.500000e+02 1.143333e+03 0.000000e+00
      vertex   1.500000e+02 1.143333e+03 1.200000e+02
    endloop
  endfacet
  facet normal 1.000000e+00 2.794185e-17 2.569333e-32
    outer loop
      vertex   1.500000e+02 1.143333e+03 1.200000e+02
      vertex   1.500000e+02 1.500000e+02 1.200000e+02
      vertex   1.500000e+02 1.500000e+02 0.000000e+00
    endloop
  endfacet
  facet normal 0.000000e+00 -1.000000e+00 0.000000e+00
    outer loop
      vertex   2.136667e+03 3.130000e+03 0.000000e+00
      vertex   3.130000e+03 3.130000e+03 0.000000e+00
      vertex   3.130000e+03 3.130000e+03 1.200000e+02
    endloop
  endfacet
  facet normal -0.000000e+00 -1.000000e+00 0.000000e+00
    outer loop
      vertex   3.130000e+03 3.130000e+03 1.200000e+02
      vertex   2.136667e+03 3.130000e+03 1.200000e+02
      vertex   2.136667e+03 3.130000e+03 0.000000e+00
    endloop
  endfacet
  facet normal 0.000000e+00 -1.000000e+00 0.000000e+00
    outer loop
      vertex   1.143333e+03 3.130000e+03 0.000000e+00
      vertex   2.136667e+03 3.130000e+03 0.000000e+00
      vertex   2.136667e+03 3.130000e+03 1.200000e+02
    endloop
  endfacet
  facet normal -0.000000e+00 -1.000000e+00 0.000000e+00
    outer loop
      vertex   2.136667e+03 3.130000e+03 1.200000e+02
      vertex   1.143333e+03 3.130000e+03 1.200000e+02
      vertex   1.143333e+03 3.130000e+03 0.000000e+00
    endloop
  endfacet
  facet normal 0.000000e+00 -1.000000e+00 0.000000e+00
    outer loop
      vertex   1.500000e+02 3.130000e+03 0.000000e+00
      vertex   1.143333e+03 3.130000e+03 0.000000e+00
      vertex   1.143333e+03 3.130000e+03 1.200000e+02
    endloop
  endfacet
  facet normal -0.000000e+00 -1.000000e+00 0.000000e+00
    outer loop
      vertex   1.143333e+03 3.130000e+03 1.200000e+02
      vertex   1.500000e+02 3.130000e+03 1.200000e+02
      vertex   1.500000e+02 3.130000e+03 0.000000e+00
    endloop
  endfacet
  facet normal -1.000000e+00 0.000000e+00 0.000000e+00
    outer loop
      vertex   3.130000e+03 1.143333e+03 0.000000e+00
      vertex   3.130000e+03 1.500000e+02 0.000000e+00
      vertex   3.130000e+03 1.500000e+02 1.200000e+02
    endloop
  endfacet
  facet normal -1.000000e+00 0.000000e+00 0.000000e+00
    outer loop
      vertex   3.130000e+03 1.500000e+02 1.200000e+02
      vertex   3.130000e+03 1.143333e+03 1.200000e+02
      vertex   3.130000e+03 1.143333e+03 0.000000e+00
    endloop
  endfacet
  facet normal -1.000000e+00 0.000000e+00 0.000000e+00
    outer loop
      vertex   3.130000e+03 2.136667e+03 0.000000e+00
      vertex   3.130000e+03 1.143333e+03 0.000000e+00
      vertex   3.130000e+03 1.143333e+03 1.200000e+02
    endloop
  endfacet
  facet normal -1.000000e+00 0.000000e+00 0.000000e+00
    outer loop
      vertex   3.130000e+03 1.143333e+03 1.200000e+02
      vertex   3.130000e+03 2.136667e+03 1.200000e+02
      vertex   3.130000e+03 2.136667e+03 0.000000e+00
    endloop
  endfacet
  facet normal -1.000000e+00 0.000000e+00 0.000000e+00
    outer loop
      vertex   3.130000e+03 3.130000e+03 0.000000e+00
      vertex   3.130000e+03 2.136667e+03 0.000000e+00
      vertex   3.130000e+03 2.136667e+03 1.200000e+02
    endloop
  endfacet
  facet normal -1.000000e+00 0.000000e+00 0.000000e+00
    outer loop
      vertex   3.130000e+03 2.136667e+03 1.200000e+02
      vertex   3.130000e+03 3.130000e+03 1.200000e+02
      vertex   3.130000e+03 3.130000e+03 0.000000e+00
    endloop
  endfacet
  facet normal -1.508455e-16 1.000000e+00 0.000000e+00
    outer loop
      vertex   2.946000e+03 1.500000e+02 0.000000e+00
      vertex   2.946000e+03 1.500000e+02 1.200000e+02
      vertex   3.130000e+03 1.500000e+02 1.200000e+02
    endloop
  endfacet
  facet normal -1.508455e-16 1.000000e+00 0.000000e+00
    outer loop
      vertex   3.130000e+03 1.500000e+02 1.200000e+02
      vertex   3.130000e+03 1.500000e+02 0.000000e+00
      vertex   2.946000e+03 1.500000e+02 0.000000e+00
    endloop
  endfacet
  facet normal -1.000000e+00 0.000000e+00 -4.440892e-16
    outer loop
      vertex   2.946000e+03 0.000000e+00 1.000000e+03
      vertex   2.946000e+03 0.000000e+00 2.000000e+03
      vertex   2.946000e+03 1.400000e+02 2.000000e+03
    endloop
  endfacet
  facet normal -1.000000e+00 -3.172066e-15 9.366225e-32
    outer loop
      vertex   2.946000e+03 1.400000e+02 2.000000e+03
      vertex   2.946000e+03 1.400000e+02 1.060000e+03
      vertex   2.946000e+03 0.000000e+00 1.000000e+03
    endloop
  endfacet
  facet normal -1.000000e+00 -3.172066e-15 0.000000e+00
    outer loop
      vertex   2.946000e+03 0.000000e+00 0.000000e+00
      vertex   2.946000e+03 0.000000e+00 1.000000e+03
      vertex   2.946000e+03 1.400000e+02 1.060000e+03
    endloop
  endfacet
  facet normal -1.000000e+00 4.049446e-16 -4.724353e-16
    outer loop
      vertex   2.946000e+03 1.400000e+02 1.060000e+03
      vertex   2.946000e+03 1.400000e+02 1.200000e+02
      vertex   2.946000e+03 0.000000e+00 0.000000e+00
    endloop
  endfacet
  facet normal -1.000000e+00 0.000000e+00 0.000000e+00
    outer loop
      vertex   2.946000e+03 1.500000e+02 0.000000e+00
      vertex   2.946000e+03 0.000000e+00 0.000000e+00
      vertex   2.946000e+03 1.400000e+02 1.200000e+02
    endloop
  endfacet
  facet normal -1.000000e+00 0.000000e+00 0.000000e+00
    outer loop
      vertex   2.946000e+03 1.400000e+02 1.200000e+02
      vertex   2.946000e+03 1.500000e+02 1.200000e+02
      vertex   2.946000e+03 1.500000e+02 0.000000e+00
    endloop
  endfacet
  facet normal 1.000000e+00 0.000000e+00 -0.000000e+00
    outer loop
      vertex   1.946000e+03 1.400000e+02 1.060000e+03
      vertex   1.946000e+03 1.400000e+02 2.000000e+03
      vertex   1.946000e+03 0.000000e+00 2.000000e+03
    endloop
  endfacet
  facet normal 1.000000e+00 0.000000e+00 0.000000e+00
    outer loop
      vertex   1.946000e+03 0.000000e+00 2.000000e+03
      vertex   1.946000e+03 0.000000e+00 1.000000e+03
      vertex   1.946000e+03 1.400000e+02 1.060000e+03
    endloop
  endfacet
  facet normal 1.000000e+00 0.000000e+00 -0.000000e+00
    outer loop
      vertex   1.946000e+03 1.400000e+02 1.200000e+02
      vertex   1.946000e+03 1.400000e+02 1.060000e+03
      vertex   1.946000e+03 0.000000e+00 1.000000e+03
    endloop
  endfacet
  facet normal 1.000000e+00 0.000000e+00 0.000000e+00
    outer loop
      vertex   1.946000e+03 0.000000e+00 1.000000e+03
      vertex   1.946000e+03 0.000000e+00 0.000000e+00
      vertex   1.946000e+03 1.400000e+02 1.200000e+02
    endloop
  endfacet
  facet normal 1.000000e+00 0.000000e+00 0.000000e+00
    outer loop
      vertex   1.946000e+03 1.500000e+02 1.200000e+02
      vertex   1.946000e+03 1.400000e+02 1.200000e+02
      vertex   1.946000e+03 0.000000e+00 0.000000e+00
    endloop
  endfacet
  facet normal 1.000000e+00 0.000000e+00 0.000000e+00
    outer loop
      vertex   1.946000e+03 0.000000e+00 0.000000e+00
      vertex   1.946000e+03 1.500000e+02 0.000000e+00
      vertex   1.946000e+03 1.500000e+02 1.200000e+02
    endloop
  endfacet
  facet normal 0.000000e+00 -0.000000e+00 -1.000000e+00
    outer loop
      vertex   2.946000e+03 1.400000e+02 2.000000e+03
      vertex   2.946000e+03 0.000000e+00 2.000000e+03
      vertex   1.946000e+03 0.000000e+00 2.000000e+03
    endloop
  endfacet
  facet normal 0.000000e+00 0.000000e+00 -1.000000e+00
    outer loop
      vertex   1.946000e+03 0.000000e+00 2.000000e+03
      vertex   1.946000e+03 1.400000e+02 2.000000e+03
      vertex   2.946000e+03 1.400000e+02 2.000000e+03
    endloop
  endfacet
  facet normal -0.000000e+00 0.000000e+00 1.000000e+00
    outer loop
      vertex   1.043000e+03 1.400000e+02 1.200000e+02
      vertex   1.946000e+03 1.400000e+02 1.200000e+02
      vertex   1.946000e+03 1.500000e+02 1.200000e+02
    endloop
  endfacet
  facet normal 0.000000e+00 0.000000e+00 1.000000e+00
    outer loop
      vertex   1.946000e+03 1.500000e+02 1.200000e+02
      vertex   1.048000e+03 1.500000e+02 1.200000e+02
      vertex   1.043000e+03 1.400000e+02 1.200000e+02
    endloop
  endfacet
  facet normal 1.229483e-16 -6.147414e-17 1.000000e+00
    outer loop
      vertex   1.400000e+02 1.400000e+02 1.200000e+02
      vertex   1.043000e+03 1.400000e+02 1.200000e+02
      vertex   1.048000e+03 1.500000e+02 1.200000e+02
    endloop
  endfacet
  facet normal -3.431501e-31 1.110223e-14 1.000000e+00
    outer loop
      vertex   1.048000e+03 1.500000e+02 1.200000e+02
      vertex   1.500000e+02 1.500000e+02 1.200000e+02
      vertex   1.400000e+02 1.400000e+02 1.200000e+02
    endloop
  endfacet
  facet normal 1.099121e-14 1.110223e-16 1.000000e+00
    outer loop
      vertex   1.400000e+02 1.140000e+03 1.200000e+02
      vertex   1.400000e+02 1.400000e+02 1.200000e+02
      vertex   1.500000e+02 1.500000e+02 1.200000e+02
    endloop
  endfacet
  facet normal 0.000000e+00 0.000000e+00 1.000000e+00
    outer loop
      vertex   1.500000e+02 1.500000e+02 1.200000e+02
      vertex   1.500000e+02 1.143333e+03 1.200000e+02
      vertex   1.400000e+02 1.140000e+03 1.200000e+02
    endloop
  endfacet
  facet normal 0.000000e+00 0.000000e+00 1.000000e+00
    outer loop
      vertex   1.400000e+02 2.140000e+03 1.200000e+02
      vertex   1.400000e+02 1.140000e+03 1.200000e+02
      vertex   1.500000e+02 1.143333e+03 1.200000e+02
    endloop
  endfacet
  facet normal 0.000000e+00 0.000000e+00 1.000000e+00
    outer loop
      vertex   1.500000e+02 1.143333e+03 1.200000e+02
      vertex   1.500000e+02 2.136667e+03 1.200000e+02
      vertex   1.400000e+02 2.140000e+03 1.200000e+02
    endloop
  endfacet
  facet normal -3.700743e-17 -1.110223e-16 1.000000e+00
    outer loop
      vertex   1.400000e+02 3.140000e+03 1.200000e+02
      vertex   1.400000e+02 2.140000e+03 1.200000e+02
      vertex   1.500000e+02 2.136667e+03 1.200000e+02
    endloop
  endfacet
  facet normal 1.110223e-14 3.102169e-31 1.000000e+00
    outer loop
      vertex   1.500000e+02 2.136667e+03 1.200000e+02
      vertex   1.500000e+02 3.130000e+03 1.200000e+02
      vertex   1.400000e+02 3.140000e+03 1.200000e+02
    endloop
  endfacet
  facet normal 1.110223e-16 -1.099121e-14 1.000000e+00
    outer loop
      vertex   1.140000e+03 3.140000e+03 1.200000e+02
      vertex   1.400000e+02 3.140000e+03 1.200000e+02
      vertex   1.500000e+02 3.130000e+03 1.200000e+02
    endloop
  endfacet
  facet normal 0.000000e+00 0.000000e+00 1.000000e+00
    outer loop
      vertex   1.500000e+02 3.130000e+03 1.200000e+02
      vertex   1.143333e+03 3.130000e+03 1.200000e+02
      vertex   1.140000e+03 3.140000e+03 1.200000e+02
    endloop
  endfacet
  facet normal 0.000000e+00 0.000000e+00 1.000000e+00
    outer loop
      vertex   2.140000e+03 3.140000e+03 1.200000e+02
      vertex   1.140000e+03 3.140000e+03 1.200000e+02
      vertex   1.143333e+03 3.130000e+03 1.200000e+02
    endloop
  endfacet
  facet normal 0.000000e+00 0.000000e+00 1.000000e+00
    outer loop
      vertex   1.143333e+03 3.130000e+03 1.200000e+02
      vertex   2.136667e+03 3.130000e+03 1.200000e+02
      vertex   2.140000e+03 3.140000e+03 1.200000e+02
    endloop
  endfacet
  facet normal -1.110223e-16 3.700743e-17 1.000000e+00
    outer loop
      vertex   3.140000e+03 3.140000e+03 1.200000e+02
      vertex   2.140000e+03 3.140000e+03 1.200000e+02
      vertex   2.136667e+03 3.130000e+03 1.200000e+02
    endloop
  endfacet
  facet normal 0.000000e+00 -1.110223e-14 1.000000e+00
    outer loop
      vertex   2.136667e+03 3.130000e+03 1.200000e+02
      vertex   3.130000e+03 3.130000e+03 1.200000e+02
      vertex   3.140000e+03 3.140000e+03 1.200000e+02
    endloop
  endfacet
  facet normal -1.099121e-14 -1.110223e-16 1.000000e+00
    outer loop
      vertex   3.140000e+03 2.140000e+03 1.200000e+02
      vertex   3.140000e+03 3.140000e+03 1.200000e+02
      vertex   3.130000e+03 3.130000e+03 1.200000e+02
    endloop
  endfacet
  facet normal 0.000000e+00 0.000000e+00 1.000000e+00
    outer loop
      vertex   3.130000e+03 3.130000e+03 1.200000e+02
      vertex   3.130000e+03 2.136667e+03 1.200000e+02
      vertex   3.140000e+03 2.140000e+03 1.200000e+02
    endloop
  endfacet
  facet normal 0.000000e+00 -0.000000e+00 1.000000e+00
    outer loop
      vertex   3.140000e+03 1.140000e+03 1.200000e+02
      vertex   3.140000e+03 2.140000e+03 1.200000e+02
      vertex   3.130000e+03 2.136667e+03 1.200000e+02
    endloop
  endfacet
  facet normal 0.000000e+00 0.000000e+00 1.000000e+00
    outer loop
      vertex   3.130000e+03 2.136667e+03 1.200000e+02
      vertex   3.130000e+03 1.143333e+03 1.200000e+02
      vertex   3.140000e+03 1.140000e+03 1.200000e+02
    endloop
  endfacet
  facet normal 0.000000e+00 -0.000000e+00 1.000000e+00
    outer loop
      vertex   3.140000e+03 1.400000e+02 1.200000e+02
      vertex   3.140000e+03 1.140000e+03 1.200000e+02
      vertex   3.130000e+03 1.143333e+03 1.200000e+02
    endloop
  endfacet
  facet normal 0.000000e+00 0.000000e+00 1.000000e+00
    outer loop
      vertex   3.130000e+03 1.143333e+03 1.200000e+02
      vertex   3.130000e+03 1.500000e+02 1.200000e+02
      vertex   3.140000e+03 1.400000e+02 1.200000e+02
    endloop
  endfacet
  facet normal 0.000000e+00 0.000000e+00 1.000000e+00
    outer loop
      vertex   2.946000e+03 1.400000e+02 1.200000e+02
      vertex   3.140000e+03 1.400000e+02 1.200000e+02
      vertex   3.130000e+03 1.500000e+02 1.200000e+02
    endloop
  endfacet
  facet normal 0.000000e+00 0.000000e+00 1.000000e+00
    outer loop
      vertex   3.130000e+03 1.500000e+02 1.200000e+02
      vertex   2.946000e+03 1.500000e+02 1.200000e+02
      vertex   2.946000e+03 1.400000e+02 1.200000e+02
    endloop
  endfacet
  facet normal 0.000000e+00 1.000000e+00 0.000000e+00
    outer loop
      vertex   3.140000e+03 1.400000e+02 1.080000e+03
      vertex   3.140000e+03 1.400000e+02 1.200000e+02
      vertex   2.946000e+03 1.400000e+02 1.200000e+02
    endloop
  endfacet
  facet normal 0.000000e+00 1.000000e+00 -0.000000e+00
    outer loop
      vertex   2.946000e+03 1.400000e+02 1.200000e+02
      vertex   2.946000e+03 1.400000e+02 1.060000e+03
      vertex   3.140000e+03 1.400000e+02 1.080000e+03
    endloop
  endfacet
  facet normal 0.000000e+00 1.000000e+00 0.000000e+00
    outer loop
      vertex   3.140000e+03 1.400000e+02 2.040000e+03
      vertex   3.140000e+03 1.400000e+02 1.080000e+03
      vertex   2.946000e+03 1.400000e+02 1.060000e+03
    endloop
  endfacet
  facet normal 1.491581e-16 1.000000e+00 -2.952721e-17
    outer loop
      vertex   2.946000e+03 1.400000e+02 1.060000e+03
      vertex   2.946000e+03 1.400000e+02 2.000000e+03
      vertex   3.140000e+03 1.400000e+02 2.040000e+03
    endloop
  endfacet
  facet normal 1.430700e-16 1.000000e+00 0.000000e+00
    outer loop
      vertex   3.140000e+03 1.400000e+02 3.000000e+03
      vertex   3.140000e+03 1.400000e+02 2.040000e+03
      vertex   2.946000e+03 1.400000e+02 2.000000e+03
    endloop
  endfacet
  facet normal 3.073707e-17 1.000000e+00 0.000000e+00
    outer loop
      vertex   1.946000e+03 1.400000e+02 2.000000e+03
      vertex   1.946000e+03 1.400000e+02 1.060000e+03
      vertex   1.400000e+02 1.400000e+02 1.080000e+03
    endloop
  endfacet
  facet normal 3.073707e-17 1.000000e+00 -0.000000e+00
    outer loop
      vertex   1.400000e+02 1.400000e+02 1.080000e+03
      vertex   1.400000e+02 1.400000e+02 2.040000e+03
      vertex   1.946000e+03 1.400000e+02 2.000000e+03
    endloop
  endfacet
  facet normal 2.775558e-17 1.000000e+00 2.237099e-17
    outer loop
      vertex   2.140000e+03 1.400000e+02 3.000000e+03
      vertex   3.140000e+03 1.400000e+02 3.000000e+03
      vertex   2.946000e+03 1.400000e+02 2.000000e+03
    endloop
  endfacet
  facet normal 2.775558e-17 1.000000e+00 2.237099e-17
    outer loop
      vertex   2.946000e+03 1.400000e+02 2.000000e+03
      vertex   1.946000e+03 1.400000e+02 2.000000e+03
      vertex   2.140000e+03 1.400000e+02 3.000000e+03
    endloop
  endfacet
  facet normal 5.551115e-17 1.000000e+00 1.698641e-17
    outer loop
      vertex   1.946000e+03 1.400000e+02 2.000000e+03
      vertex   1.140000e+03 1.400000e+02 3.000000e+03
      vertex   2.140000e+03 1.400000e+02 3.000000e+03
    endloop
  endfacet
  facet normal 3.066984e-17 1.000000e+00 -3.035688e-18
    outer loop
      vertex   1.140000e+03 1.400000e+02 3.000000e+03
      vertex   1.946000e+03 1.400000e+02 2.000000e+03
      vertex   1.400000e+02 1.400000e+02 2.040000e+03
    endloop
  endfacet
  facet normal 2.775558e-17 1.000000e+00 -0.000000e+00
    outer loop
      vertex   1.400000e+02 1.400000e+02 2.040000e+03
      vertex   1.400000e+02 1.400000e+02 3.000000e+03
      vertex   1.140000e+03 1.400000e+02 3.000000e+03
    endloop
  endfacet
  facet normal 3.008309e-17 1.000000e+00 -5.905442e-17
    outer loop
      vertex   1.400000e+02 1.400000e+02 1.080000e+03
      vertex   1.946000e+03 1.400000e+02 1.060000e+03
      vertex   1.946000e+03 1.400000e+02 1.200000e+02
    endloop
  endfacet
  facet normal 9.221121e-17 1.000000e+00 5.782412e-17
    outer loop
      vertex   1.946000e+03 1.400000e+02 1.200000e+02
      vertex   1.043000e+03 1.400000e+02 1.200000e+02
      vertex   1.400000e+02 1.400000e+02 1.080000e+03
    endloop
  endfacet
  facet normal 3.073707e-17 1.000000e+00 -4.230486e-33
    outer loop
      vertex   1.043000e+03 1.400000e+02 1.200000e+02
      vertex   1.400000e+02 1.400000e+02 1.200000e+02
      vertex   1.400000e+02 1.400000e+02 1.080000e+03
    endloop
  endfacet
  facet normal 1.000000e+00 -2.775558e-17 0.000000e+00
    outer loop
      vertex   1.400000e+02 1.140000e+03 3.000000e+03
      vertex   1.400000e+02 1.400000e+02 3.000000e+03
      vertex   1.400000e+02 1.400000e+02 2.040000e+03
    endloop
  endfacet
  facet normal 1.000000e+00 -5.551115e-17 0.000000e+00
    outer loop
      vertex   1.400000e+02 2.140000e+03 3.000000e+03
      vertex   1.400000e+02 1.140000e+03 3.000000e+03
      vertex   1.400000e+02 1.140000e+03 1.200000e+02
    endloop
  endfacet
  facet normal 1.000000e+00 -5.551115e-17 0.000000e+00
    outer loop
      vertex   1.400000e+02 1.140000e+03 1.200000e+02
      vertex   1.400000e+02 2.140000e+03 1.200000e+02
      vertex   1.400000e+02 2.140000e+03 3.000000e+03
    endloop
  endfacet
  facet normal 1.000000e+00 -2.775558e-17 0.000000e+00
    outer loop
      vertex   1.400000e+02 2.140000e+03 1.200000e+02
      vertex   1.400000e+02 3.140000e+03 1.200000e+02
      vertex   1.400000e+02 3.140000e+03 1.080000e+03
    endloop
  endfacet
  facet normal 1.000000e+00 -2.775558e-17 0.000000e+00
    outer loop
      vertex   1.400000e+02 1.140000e+03 1.200000e+02
      vertex   1.400000e+02 1.140000e+03 3.000000e+03
      vertex   1.400000e+02 1.400000e+02 2.040000e+03
    endloop
  endfacet
  facet normal 1.000000e+00 -2.775558e-17 0.000000e+00
    outer loop
      vertex   1.400000e+02 1.400000e+02 2.040000e+03
      vertex   1.400000e+02 1.400000e+02 1.080000e+03
      vertex   1.400000e+02 1.140000e+03 1.200000e+02
    endloop
  endfacet
  facet normal 1.000000e+00 -2.775558e-17 0.000000e+00
    outer loop
      vertex   1.400000e+02 1.400000e+02 1.080000e+03
      vertex   1.400000e+02 1.400000e+02 1.200000e+02
      vertex   1.400000e+02 1.140000e+03 1.200000e+02
    endloop
  endfacet
  facet normal 1.000000e+00 -2.775558e-17 0.000000e+00
    outer loop
      vertex   1.400000e+02 2.140000e+03 3.000000e+03
      vertex   1.400000e+02 2.140000e+03 1.200000e+02
      vertex   1.400000e+02 3.140000e+03 1.080000e+03
    endloop
  endfacet
  facet normal 1.000000e+00 -2.775558e-17 0.000000e+00
    outer loop
      vertex   1.400000e+02 3.140000e+03 1.080000e+03
      vertex   1.400000e+02 3.140000e+03 2.040000e+03
      vertex   1.400000e+02 2.140000e+03 3.000000e+03
    endloop
  endfacet
  facet normal 1.000000e+00 -2.775558e-17 0.000000e+00
    outer loop
      vertex   1.400000e+02 3.140000e+03 2.040000e+03
      vertex   1.400000e+02 3.140000e+03 3.000000e+03
      vertex   1.400000e+02 2.140000e+03 3.000000e+03
    endloop
  endfacet
  facet normal -1.000000e+00 0.000000e+00 0.000000e+00
    outer loop
      vertex   3.140000e+03 2.140000e+03 3.000000e+03
      vertex   3.140000e+03 3.140000e+03 3.000000e+03
      vertex   3.140000e+03 3.140000e+03 2.040000e+03
    endloop
  endfacet
  facet normal -1.000000e+00 0.000000e+00 0.000000e+00
    outer loop
      vertex   3.140000e+03 1.140000e+03 3.000000e+03
      vertex   3.140000e+03 2.140000e+03 3.000000e+03
      vertex   3.140000e+03 2.140000e+03 1.200000e+02
    endloop
  endfacet
  facet normal -1.000000e+00 0.000000e+00 0.000000e+00
    outer loop
      vertex   3.140000e+03 2.140000e+03 1.200000e+02
      vertex   3.140000e+03 1.140000e+03 1.200000e+02
      vertex   3.140000e+03 1.140000e+03 3.000000e+03
    endloop
  endfacet
  facet normal -1.000000e+00 0.000000e+00 0.000000e+00
    outer loop
      vertex   3.140000e+03 1.140000e+03 1.200000e+02
      vertex   3.140000e+03 1.400000e+02 1.200000e+02
      vertex   3.140000e+03 1.400000e+02 1.080000e+03
    endloop
  endfacet
  facet normal -1.000000e+00 0.000000e+00 0.000000e+00
    outer loop
      vertex   3.140000e+03 2.140000e+03 1.200000e+02
      vertex   3.140000e+03 2.140000e+03 3.000000e+03
      vertex   3.140000e+03 3.140000e+03 2.040000e+03
    endloop
  endfacet
  facet normal -1.000000e+00 0.000000e+00 -0.000000e+00
    outer loop
      vertex   3.140000e+03 3.140000e+03 2.040000e+03
      vertex   3.140000e+03 3.140000e+03 1.080000e+03
      vertex   3.140000e+03 2.140000e+03 1.200000e+02
    endloop
  endfacet
  facet normal -1.000000e+00 0.000000e+00 -0.000000e+00
    outer loop
      vertex   3.140000e+03 3.140000e+03 1.080000e+03
      vertex   3.140000e+03 3.140000e+03 1.200000e+02
      vertex   3.140000e+03 2.140000e+03 1.200000e+02
    endloop
  endfacet
  facet normal -1.000000e+00 0.000000e+00 -0.000000e+00
    outer loop
      vertex   3.140000e+03 1.140000e+03 3.000000e+03
      vertex   3.140000e+03 1.140000e+03 1.200000e+02
      vertex   3.140000e+03 1.400000e+02 1.080000e+03
    endloop
  endfacet
  facet normal -1.000000e+00 0.000000e+00 0.000000e+00
    outer loop
      vertex   3.140000e+03 1.400000e+02 1.080000e+03
      vertex   3.140000e+03 1.400000e+02 2.040000e+03
      vertex   3.140000e+03 1.140000e+03 3.000000e+03
    endloop
  endfacet
  facet normal -1.000000e+00 0.000000e+00 0.000000e+00
    outer loop
      vertex   3.140000e+03 1.400000e+02 2.040000e+03
      vertex   3.140000e+03 1.400000e+02 3.000000e+03
      vertex   3.140000e+03 1.140000e+03 3.000000e+03
    endloop
  endfacet
  facet normal 0.000000e+00 -1.000000e+00 0.000000e+00
    outer loop
      vertex   2.946000e+03 0.000000e+00 1.000000e+03
      vertex   2.946000e+03 0.000000e+00 0.000000e+00
      vertex   3.280000e+03 0.000000e+00 0.000000e+00
    endloop
  endfacet
  facet normal 4.655774e-17 -1.000000e+00 0.000000e+00
    outer loop
      vertex   1.946000e+03 0.000000e+00 1.000000e+03
      vertex   1.946000e+03 0.000000e+00 2.000000e+03
      vertex   5.200000e+02 -6.639134e-14 3.000000e+03
    endloop
  endfacet
  facet normal -1.276756e-16 -1.000000e+00 -2.484568e-16
    outer loop
      vertex   1.440000e+03 -1.838529e-13 3.000000e+03
      vertex   5.200000e+02 -6.639134e-14 3.000000e+03
      vertex   1.946000e+03 0.000000e+00 2.000000e+03
    endloop
  endfacet
  facet normal 0.000000e+00 -1.000000e+00 0.000000e+00
    outer loop
      vertex   3.280000e+03 0.000000e+00 0.000000e+00
      vertex   3.280000e+03 0.000000e+00 1.000000e+03
      vertex   2.946000e+03 0.000000e+00 1.000000e+03
    endloop
  endfacet
  facet normal 0.000000e+00 -1.000000e+00 0.000000e+00
    outer loop
      vertex   2.946000e+03 0.000000e+00 1.000000e+03
      vertex   3.280000e+03 0.000000e+00 1.000000e+03
      vertex   3.280000e+03 0.000000e+00 2.000000e+03
    endloop
  endfacet
  facet normal -0.000000e+00 -1.000000e+00 0.000000e+00
    outer loop
      vertex   3.280000e+03 0.000000e+00 2.000000e+03
      vertex   2.946000e+03 0.000000e+00 2.000000e+03
      vertex   2.946000e+03 0.000000e+00 1.000000e+03
    endloop
  endfacet
  facet normal 0.000000e+00 -1.000000e+00 0.000000e+00
    outer loop
      vertex   3.280000e+03 0.000000e+00 2.000000e+03
      vertex   3.280000e+03 0.000000e+00 3.000000e+03
      vertex   2.946000e+03 0.000000e+00 2.000000e+03
    endloop
  endfacet
  facet normal 0.000000e+00 -1.000000e+00 0.000000e+00
    outer loop
      vertex   1.946000e+03 0.000000e+00 2.000000e+03
      vertex   2.946000e+03 0.000000e+00 2.000000e+03
      vertex   3.280000e+03 0.000000e+00 3.000000e+03
    endloop
  endfacet
  facet normal 3.275158e-16 -1.000000e+00 -4.369061e-16
    outer loop
      vertex   3.280000e+03 0.000000e+00 3.000000e+03
      vertex   2.360000e+03 -3.013145e-13 3.000000e+03
      vertex   1.946000e+03 0.000000e+00 2.000000e+03
    endloop
  endfacet
  facet normal -1.276756e-16 -1.000000e+00 -2.484568e-16
    outer loop
      vertex   1.946000e+03 0.000000e+00 2.000000e+03
      vertex   2.360000e+03 -3.013145e-13 3.000000e+03
      vertex   1.440000e+03 -1.838529e-13 3.000000e+03
    endloop
  endfacet
  facet normal 0.000000e+00 -1.000000e+00 0.000000e+00
    outer loop
      vertex   9.537143e+02 0.000000e+00 0.000000e+00
      vertex   1.946000e+03 0.000000e+00 0.000000e+00
      vertex   1.946000e+03 0.000000e+00 1.000000e+03
    endloop
  endfacet
  facet normal 1.946634e-17 -1.000000e+00 -1.931617e-17
    outer loop
      vertex   5.200000e+02 -6.639134e-14 3.000000e+03
      vertex   9.537143e+02 0.000000e+00 0.000000e+00
      vertex   1.946000e+03 0.000000e+00 1.000000e+03
    endloop
  endfacet
  facet normal 0.000000e+00 -1.000000e+00 -2.213045e-17
    outer loop
      vertex   -3.857143e+01 0.000000e+00 0.000000e+00
      vertex   9.537143e+02 0.000000e+00 0.000000e+00
      vertex   5.200000e+02 -6.639134e-14 3.000000e+03
    endloop
  endfacet
  facet normal -1.276756e-16 -1.000000e+00 1.641544e-18
    outer loop
      vertex   5.200000e+02 -6.639134e-14 3.000000e+03
      vertex   -4.000000e+02 5.107026e-14 3.000000e+03
      vertex   -3.857143e+01 0.000000e+00 0.000000e+00
    endloop
  endfacet
  facet normal 0.000000e+00 -1.000000e+00 1.702342e-17
    outer loop
      vertex   -1.030857e+03 0.000000e+00 0.000000e+00
      vertex   -3.857143e+01 0.000000e+00 0.000000e+00
      vertex   -4.000000e+02 5.107026e-14 3.000000e+03
    endloop
  endfacet
  facet normal -1.276756e-16 -1.000000e+00 4.387178e-17
    outer loop
      vertex   -4.000000e+02 5.107026e-14 3.000000e+03
      vertex   -1.320000e+03 1.685319e-13 3.000000e+03
      vertex   -1.030857e+03 0.000000e+00 0.000000e+00
    endloop
  endfacet
  facet normal 0.000000e+00 -1.000000e+00 5.617729e-17
    outer loop
      vertex   -2.023143e+03 0.000000e+00 0.000000e+00
      vertex   -1.030857e+03 0.000000e+00 0.000000e+00
      vertex   -1.320000e+03 1.685319e-13 3.000000e+03
    endloop
  endfacet
  facet normal -1.276756e-16 -1.000000e+00 8.610202e-17
    outer loop
      vertex   -1.320000e+03 1.685319e-13 3.000000e+03
      vertex   -2.240000e+03 2.859935e-13 3.000000e+03
      vertex   -2.023143e+03 0.000000e+00 0.000000e+00
    endloop
  endfacet
  facet normal 0.000000e+00 -1.000000e+00 9.533115e-17
    outer loop
      vertex   -3.015429e+03 0.000000e+00 0.000000e+00
      vertex   -2.023143e+03 0.000000e+00 0.000000e+00
      vertex   -2.240000e+03 2.859935e-13 3.000000e+03
    endloop
  endfacet
  facet normal -1.276756e-16 -1.000000e+00 1.283323e-16
    outer loop
      vertex   -2.240000e+03 2.859935e-13 3.000000e+03
      vertex   -3.160000e+03 4.034550e-13 3.000000e+03
      vertex   -3.015429e+03 0.000000e+00 0.000000e+00
    endloop
  endfacet
  facet normal 0.000000e+00 -1.000000e+00 1.344850e-16
    outer loop
      vertex   -4.007714e+03 0.000000e+00 0.000000e+00
      vertex   -3.015429e+03 0.000000e+00 0.000000e+00
      vertex   -3.160000e+03 4.034550e-13 3.000000e+03
    endloop
  endfacet
  facet normal -1.276756e-16 -1.000000e+00 1.705625e-16
    outer loop
      vertex   -3.160000e+03 4.034550e-13 3.000000e+03
      vertex   -4.080000e+03 5.209166e-13 3.000000e+03
      vertex   -4.007714e+03 0.000000e+00 0.000000e+00
    endloop
  endfacet
  facet normal -1.276756e-16 -1.000000e+00 6.383782e-16
    outer loop
      vertex   -4.080000e+03 5.209166e-13 3.000000e+03
      vertex   -5.000000e+03 6.383782e-13 3.000000e+03
      vertex   -5.000000e+03 0.000000e+00 2.000000e+03
    endloop
  endfacet
  facet normal 3.678419e-16 -1.000000e+00 1.825021e-16
    outer loop
      vertex   -4.007714e+03 0.000000e+00 0.000000e+00
      vertex   -4.080000e+03 5.209166e-13 3.000000e+03
      vertex   -5.000000e+03 0.000000e+00 2.000000e+03
    endloop
  endfacet
  facet normal 0.000000e+00 -1.000000e+00 0.000000e+00
    outer loop
      vertex   -5.000000e+03 0.000000e+00 2.000000e+03
      vertex   -5.000000e+03 0.000000e+00 1.000000e+03
      vertex   -4.007714e+03 0.000000e+00 0.000000e+00
    endloop
  endfacet
  facet normal -6.433412e-16 -1.000000e+00 -6.383782e-16
    outer loop
      vertex   -5.000000e+03 0.000000e+00 1.000000e+03
      vertex   -5.000000e+03 6.383782e-13 0.000000e+00
      vertex   -4.007714e+03 0.000000e+00 0.000000e+00
    endloop
  endfacet
  facet normal -1.000000e+00 0.000000e+00 0.000000e+00
    outer loop
      vertex   -5.000000e+03 0.000000e+00 2.000000e+03
      vertex   -5.000000e+03 6.383782e-13 3.000000e+03
      vertex   -5.000000e+03 1.400000e+02 3.000000e+03
    endloop
  endfacet
  facet normal -1.000000e+00 0.000000e+00 -0.000000e+00
    outer loop
      vertex   -5.000000e+03 1.400000e+02 3.000000e+03
      vertex   -5.000000e+03 1.400000e+02 2.000000e+03
      vertex   -5.000000e+03 0.000000e+00 2.000000e+03
    endloop
  endfacet
  facet normal -1.000000e+00 0.000000e+00 0.000000e+00
    outer loop
      vertex   -5.000000e+03 0.000000e+00 1.000000e+03
      vertex   -5.000000e+03 0.000000e+00 2.000000e+03
      vertex   -5.000000e+03 1.400000e+02 2.000000e+03
    endloop
  endfacet
  facet normal -1.000000e+00 0.000000e+00 -0.000000e+00
    outer loop
      vertex   -5.000000e+03 1.400000e+02 2.000000e+03
      vertex   -5.000000e+03 1.400000e+02 1.000000e+03
      vertex   -5.000000e+03 0.000000e+00 1.000000e+03
    endloop
  endfacet
  facet normal -1.000000e+00 0.000000e+00 0.000000e+00
    outer loop
      vertex   -5.000000e+03 6.383782e-13 0.000000e+00
      vertex   -5.000000e+03 0.000000e+00 1.000000e+03
      vertex   -5.000000e+03 1.400000e+02 1.000000e+03
    endloop
  endfacet
  facet normal -1.000000e+00 0.000000e+00 -0.000000e+00
    outer loop
      vertex   -5.000000e+03 1.400000e+02 1.000000e+03
      vertex   -5.000000e+03 1.400000e+02 0.000000e+00
      vertex   -5.000000e+03 6.383782e-13 0.000000e+00
    endloop
  endfacet
  facet normal 1.110223e-16 1.000000e+00 0.000000e+00
    outer loop
      vertex   0.000000e+00 1.400000e+02 1.000000e+03
      vertex   0.000000e+00 1.400000e+02 0.000000e+00
      vertex   -1.000000e+03 1.400000e+02 0.000000e+00
    endloop
  endfacet
  facet normal 1.110223e-16 1.000000e+00 0.000000e+00
    outer loop
      vertex   0.000000e+00 1.400000e+02 2.000000e+03
      vertex   0.000000e+00 1.400000e+02 1.000000e+03
      vertex   -1.000000e+03 1.400000e+02 0.000000e+00
    endloop
  endfacet
  facet normal 1.110223e-16 1.000000e+00 0.000000e+00
    outer loop
      vertex   -1.000000e+03 1.400000e+02 3.000000e+03
      vertex   0.000000e+00 1.400000e+02 3.000000e+03
      vertex   0.000000e+00 1.400000e+02 2.000000e+03
    endloop
  endfacet
  facet normal 1.110223e-16 1.000000e+00 -0.000000e+00
    outer loop
      vertex   -1.000000e+03 1.400000e+02 0.000000e+00
      vertex   -1.000000e+03 1.400000e+02 3.000000e+03
      vertex   0.000000e+00 1.400000e+02 2.000000e+03
    endloop
  endfacet
  facet normal 1.110223e-16 1.000000e+00 0.000000e+00
    outer loop
      vertex   -2.000000e+03 1.400000e+02 3.000000e+03
      vertex   -1.000000e+03 1.400000e+02 3.000000e+03
      vertex   -1.000000e+03 1.400000e+02 0.000000e+00
    endloop
  endfacet
  facet normal 1.110223e-16 1.000000e+00 0.000000e+00
    outer loop
      vertex   -1.000000e+03 1.400000e+02 0.000000e+00
      vertex   -2.000000e+03 1.400000e+02 0.000000e+00
      vertex   -2.000000e+03 1.400000e+02 3.000000e+03
    endloop
  endfacet
  facet normal 8.326673e-17 1.000000e+00 0.000000e+00
    outer loop
      vertex   -3.000000e+03 1.400000e+02 3.000000e+03
      vertex   -2.000000e+03 1.400000e+02 3.000000e+03
      vertex   -2.000000e+03 1.400000e+02 0.000000e+00
    endloop
  endfacet
  facet normal 8.326673e-17 1.000000e+00 0.000000e+00
    outer loop
      vertex   -2.000000e+03 1.400000e+02 0.000000e+00
      vertex   -3.000000e+03 1.400000e+02 0.000000e+00
      vertex   -3.000000e+03 1.400000e+02 3.000000e+03
    endloop
  endfacet
  facet normal 1.110223e-16 1.000000e+00 0.000000e+00
    outer loop
      vertex   -4.000000e+03 1.400000e+02 3.000000e+03
      vertex   -3.000000e+03 1.400000e+02 3.000000e+03
      vertex   -3.000000e+03 1.400000e+02 0.000000e+00
    endloop
  endfacet
  facet normal 1.110223e-16 1.000000e+00 0.000000e+00
    outer loop
      vertex   -3.000000e+03 1.400000e+02 0.000000e+00
      vertex   -4.000000e+03 1.400000e+02 0.000000e+00
      vertex   -4.000000e+03 1.400000e+02 3.000000e+03
    endloop
  endfacet
  facet normal 1.110223e-16 1.000000e+00 0.000000e+00
    outer loop
      vertex   -4.000000e+03 1.400000e+02 0.000000e+00
      vertex   -5.000000e+03 1.400000e+02 0.000000e+00
      vertex   -5.000000e+03 1.400000e+02 1.000000e+03
    endloop
  endfacet
  facet normal 1.110223e-16 1.000000e+00 0.000000e+00
    outer loop
      vertex   -4.000000e+03 1.400000e+02 3.000000e+03
      vertex   -4.000000e+03 1.400000e+02 0.000000e+00
      vertex   -5.000000e+03 1.400000e+02 1.000000e+03
    endloop
  endfacet
  facet normal 1.110223e-16 1.000000e+00 -0.000000e+00
    outer loop
      vertex   -5.000000e+03 1.400000e+02 1.000000e+03
      vertex   -5.000000e+03 1.400000e+02 2.000000e+03
      vertex   -4.000000e+03 1.400000e+02 3.000000e+03
    endloop
  endfacet
  facet normal 1.110223e-16 1.000000e+00 -0.000000e+00
    outer loop
      vertex   -5.000000e+03 1.400000e+02 2.000000e+03
      vertex   -5.000000e+03 1.400000e+02 3.000000e+03
      vertex   -4.000000e+03 1.400000e+02 3.000000e+03
    endloop
  endfacet
  facet normal 1.000000e+00 0.000000e+00 0.000000e+00
    outer loop
      vertex   3.280000e+03 0.000000e+00 1.000000e+03
      vertex   3.280000e+03 0.000000e+00 0.000000e+00
      vertex   3.280000e+03 9.200000e+02 0.000000e+00
    endloop
  endfacet
  facet normal 1.000000e+00 0.000000e+00 0.000000e+00
    outer loop
      vertex   3.280000e+03 0.000000e+00 2.000000e+03
      vertex   3.280000e+03 0.000000e+00 1.000000e+03
      vertex   3.280000e+03 9.200000e+02 0.000000e+00
    endloop
  endfacet
  facet normal 1.000000e+00 0.000000e+00 0.000000e+00
    outer loop
      vertex   3.280000e+03 9.200000e+02 3.000000e+03
      vertex   3.280000e+03 0.000000e+00 3.000000e+03
      vertex   3.280000e+03 0.000000e+00 2.000000e+03
    endloop
  endfacet
  facet normal 1.000000e+00 0.000000e+00 -0.000000e+00
    outer loop
      vertex   3.280000e+03 9.200000e+02 0.000000e+00
      vertex   3.280000e+03 9.200000e+02 3.000000e+03
      vertex   3.280000e+03 0.000000e+00 2.000000e+03
    endloop
  endfacet
  facet normal 1.000000e+00 0.000000e+00 0.000000e+00
    outer loop
      vertex   3.280000e+03 1.840000e+03 3.000000e+03
      vertex   3.280000e+03 9.200000e+02 3.000000e+03
      vertex   3.280000e+03 9.200000e+02 0.000000e+00
    endloop
  endfacet
  facet normal 1.000000e+00 0.000000e+00 0.000000e+00
    outer loop
      vertex   3.280000e+03 9.200000e+02 0.000000e+00
      vertex   3.280000e+03 1.840000e+03 0.000000e+00
      vertex   3.280000e+03 1.840000e+03 3.000000e+03
    endloop
  endfacet
  facet normal 1.000000e+00 0.000000e+00 0.000000e+00
    outer loop
      vertex   3.280000e+03 2.760000e+03 3.000000e+03
      vertex   3.280000e+03 1.840000e+03 3.000000e+03
      vertex   3.280000e+03 1.840000e+03 0.000000e+00
    endloop
  endfacet
  facet normal 1.000000e+00 0.000000e+00 0.000000e+00
    outer loop
      vertex   3.280000e+03 1.840000e+03 0.000000e+00
      vertex   3.280000e+03 2.760000e+03 0.000000e+00
      vertex   3.280000e+03 2.760000e+03 3.000000e+03
    endloop
  endfacet
  facet normal 1.000000e+00 0.000000e+00 0.000000e+00
    outer loop
      vertex   3.280000e+03 3.680000e+03 3.000000e+03
      vertex   3.280000e+03 2.760000e+03 3.000000e+03
      vertex   3.280000e+03 2.760000e+03 0.000000e+00
    endloop
  endfacet
  facet normal 1.000000e+00 0.000000e+00 0.000000e+00
    outer loop
      vertex   3.280000e+03 2.760000e+03 0.000000e+00
      vertex   3.280000e+03 3.680000e+03 0.000000e+00
      vertex   3.280000e+03 3.680000e+03 3.000000e+03
    endloop
  endfacet
  facet normal 1.000000e+00 0.000000e+00 0.000000e+00
    outer loop
      vertex   3.280000e+03 4.600000e+03 3.000000e+03
      vertex   3.280000e+03 3.680000e+03 3.000000e+03
      vertex   3.280000e+03 3.680000e+03 0.000000e+00
    endloop
  endfacet
  facet normal 1.000000e+00 0.000000e+00 0.000000e+00
    outer loop
      vertex   3.280000e+03 3.680000e+03 0.000000e+00
      vertex   3.280000e+03 4.600000e+03 0.000000e+00
      vertex   3.280000e+03 4.600000e+03 3.000000e+03
    endloop
  endfacet
  facet normal 1.000000e+00 0.000000e+00 0.000000e+00
    outer loop
      vertex   3.280000e+03 5.520000e+03 3.000000e+03
      vertex   3.280000e+03 4.600000e+03 3.000000e+03
      vertex   3.280000e+03 4.600000e+03 0.000000e+00
    endloop
  endfacet
  facet normal 1.000000e+00 0.000000e+00 0.000000e+00
    outer loop
      vertex   3.280000e+03 4.600000e+03 0.000000e+00
      vertex   3.280000e+03 5.520000e+03 0.000000e+00
      vertex   3.280000e+03 5.520000e+03 3.000000e+03
    endloop
  endfacet
  facet normal 1.000000e+00 0.000000e+00 0.000000e+00
    outer loop
      vertex   3.280000e+03 6.440000e+03 3.000000e+03
      vertex   3.280000e+03 5.520000e+03 3.000000e+03
      vertex   3.280000e+03 5.520000e+03 0.000000e+00
    endloop
  endfacet
  facet normal 1.000000e+00 0.000000e+00 0.000000e+00
    outer loop
      vertex   3.280000e+03 5.520000e+03 0.000000e+00
      vertex   3.280000e+03 6.440000e+03 0.000000e+00
      vertex   3.280000e+03 6.440000e+03 3.000000e+03
    endloop
  endfacet
  facet normal 1.000000e+00 0.000000e+00 0.000000e+00
    outer loop
      vertex   3.280000e+03 7.360000e+03 3.000000e+03
      vertex   3.280000e+03 6.440000e+03 3.000000e+03
      vertex   3.280000e+03 6.440000e+03 0.000000e+00
    endloop
  endfacet
  facet normal 1.000000e+00 0.000000e+00 0.000000e+00
    outer loop
      vertex   3.280000e+03 6.440000e+03 0.000000e+00
      vertex   3.280000e+03 7.360000e+03 0.000000e+00
      vertex   3.280000e+03 7.360000e+03 3.000000e+03
    endloop
  endfacet
  facet normal 1.000000e+00 0.000000e+00 0.000000e+00
    outer loop
      vertex   3.280000e+03 7.360000e+03 0.000000e+00
      vertex   3.280000e+03 8.280000e+03 0.000000e+00
      vertex   3.280000e+03 8.280000e+03 1.000000e+03
    endloop
  endfacet
  facet normal 1.000000e+00 0.000000e+00 0.000000e+00
    outer loop
      vertex   3.280000e+03 7.360000e+03 3.000000e+03
      vertex   3.280000e+03 7.360000e+03 0.000000e+00
      vertex   3.280000e+03 8.280000e+03 1.000000e+03
    endloop
  endfacet
  facet normal 1.000000e+00 0.000000e+00 -0.000000e+00
    outer loop
      vertex   3.280000e+03 8.280000e+03 1.000000e+03
      vertex   3.280000e+03 8.280000e+03 2.000000e+03
      vertex   3.280000e+03 7.360000e+03 3.000000e+03
    endloop
  endfacet
  facet normal 1.000000e+00 0.000000e+00 -0.000000e+00
    outer loop
      vertex   3.280000e+03 8.280000e+03 2.000000e+03
      vertex   3.280000e+03 8.280000e+03 3.000000e+03
      vertex   3.280000e+03 7.360000e+03 3.000000e+03
    endloop
  endfacet
  facet normal 0.000000e+00 1.000000e+00 0.000000e+00
    outer loop
      vertex   3.140000e+03 8.280000e+03 2.000000e+03
      vertex   3.140000e+03 8.280000e+03 3.000000e+03
      vertex   3.280000e+03 8.280000e+03 3.000000e+03
    endloop
  endfacet
  facet normal 0.000000e+00 1.000000e+00 0.000000e+00
    outer loop
      vertex   3.280000e+03 8.280000e+03 3.000000e+03
      vertex   3.280000e+03 8.280000e+03 2.000000e+03
      vertex   3.140000e+03 8.280000e+03 2.000000e+03
    endloop
  endfacet
  facet normal 0.000000e+00 1.000000e+00 0.000000e+00
    outer loop
      vertex   3.140000e+03 8.280000e+03 1.000000e+03
      vertex   3.140000e+03 8.280000e+03 2.000000e+03
      vertex   3.280000e+03 8.280000e+03 2.000000e+03
    endloop
  endfacet
  facet normal 0.000000e+00 1.000000e+00 0.000000e+00
    outer loop
      vertex   3.280000e+03 8.280000e+03 2.000000e+03
      vertex   3.280000e+03 8.280000e+03 1.000000e+03
      vertex   3.140000e+03 8.280000e+03 1.000000e+03
    endloop
  endfacet
  facet normal 0.000000e+00 1.000000e+00 0.000000e+00
    outer loop
      vertex   3.140000e+03 8.280000e+03 0.000000e+00
      vertex   3.140000e+03 8.280000e+03 1.000000e+03
      vertex   3.280000e+03 8.280000e+03 1.000000e+03
    endloop
  endfacet
  facet normal 0.000000e+00 1.000000e+00 0.000000e+00
    outer loop
      vertex   3.280000e+03 8.280000e+03 1.000000e+03
      vertex   3.280000e+03 8.280000e+03 0.000000e+00
      vertex   3.140000e+03 8.280000e+03 0.000000e+00
    endloop
  endfacet
  facet normal 0.000000e+00 0.000000e+00 -1.000000e+00
    outer loop
      vertex   -4.007714e+03 0.000000e+00 0.000000e+00
      vertex   -5.000000e+03 6.383782e-13 0.000000e+00
      vertex   -5.000000e+03 1.400000e+02 0.000000e+00
    endloop
  endfacet
  facet normal 0.000000e+00 0.000000e+00 -1.000000e+00
    outer loop
      vertex   -5.000000e+03 1.400000e+02 0.000000e+00
      vertex   -4.000000e+03 1.400000e+02 0.000000e+00
      vertex   -4.007714e+03 0.000000e+00 0.000000e+00
    endloop
  endfacet
  facet normal 0.000000e+00 0.000000e+00 -1.000000e+00
    outer loop
      vertex   -3.015429e+03 0.000000e+00 0.000000e+00
      vertex   -4.007714e+03 0.000000e+00 0.000000e+00
      vertex   -4.000000e+03 1.400000e+02 0.000000e+00
    endloop
  endfacet
  facet normal 0.000000e+00 0.000000e+00 -1.000000e+00
    outer loop
      vertex   -4.000000e+03 1.400000e+02 0.000000e+00
      vertex   -3.000000e+03 1.400000e+02 0.000000e+00
      vertex   -3.015429e+03 0.000000e+00 0.000000e+00
    endloop
  endfacet
  facet normal 0.000000e+00 0.000000e+00 -1.000000e+00
    outer loop
      vertex   -2.023143e+03 0.000000e+00 0.000000e+00
      vertex   -3.015429e+03 0.000000e+00 0.000000e+00
      vertex   -3.000000e+03 1.400000e+02 0.000000e+00
    endloop
  endfacet
  facet normal 0.000000e+00 0.000000e+00 -1.000000e+00
    outer loop
      vertex   -3.000000e+03 1.400000e+02 0.000000e+00
      vertex   -2.000000e+03 1.400000e+02 0.000000e+00
      vertex   -2.023143e+03 0.000000e+00 0.000000e+00
    endloop
  endfacet
  facet normal 0.000000e+00 0.000000e+00 -1.000000e+00
    outer loop
      vertex   -1.030857e+03 0.000000e+00 0.000000e+00
      vertex   -2.023143e+03 0.000000e+00 0.000000e+00
      vertex   -2.000000e+03 1.400000e+02 0.000000e+00
    endloop
  endfacet
  facet normal 0.000000e+00 0.000000e+00 -1.000000e+00
    outer loop
      vertex   -2.000000e+03 1.400000e+02 0.000000e+00
      vertex   -1.000000e+03 1.400000e+02 0.000000e+00
      vertex   -1.030857e+03 0.000000e+00 0.000000e+00
    endloop
  endfacet
  facet normal 0.000000e+00 0.000000e+00 -1.000000e+00
    outer loop
      vertex   -3.857143e+01 0.000000e+00 0.000000e+00
      vertex   -1.030857e+03 0.000000e+00 0.000000e+00
      vertex   -1.000000e+03 1.400000e+02 0.000000e+00
    endloop
  endfacet
  facet normal 0.000000e+00 0.000000e+00 -1.000000e+00
    outer loop
      vertex   -1.000000e+03 1.400000e+02 0.000000e+00
      vertex   0.000000e+00 1.400000e+02 0.000000e+00
      vertex   -3.857143e+01 0.000000e+00 0.000000e+00
    endloop
  endfacet
  facet normal 0.000000e+00 -0.000000e+00 -1.000000e+00
    outer loop
      vertex   0.000000e+00 1.400000e+02 0.000000e+00
      vertex   9.537143e+02 0.000000e+00 0.000000e+00
      vertex   -3.857143e+01 0.000000e+00 0.000000e+00
    endloop
  endfacet
  facet normal 0.000000e+00 0.000000e+00 -1.000000e+00
    outer loop
      vertex   3.280000e+03 0.000000e+00 0.000000e+00
      vertex   2.946000e+03 0.000000e+00 0.000000e+00
      vertex   2.946000e+03 1.500000e+02 0.000000e+00
    endloop
  endfacet
  facet normal 0.000000e+00 0.000000e+00 -1.000000e+00
    outer loop
      vertex   2.946000e+03 1.500000e+02 0.000000e+00
      vertex   3.130000e+03 1.500000e+02 0.000000e+00
      vertex   3.280000e+03 0.000000e+00 0.000000e+00
    endloop
  endfacet
  facet normal 0.000000e+00 -0.000000e+00 -1.000000e+00
    outer loop
      vertex   3.280000e+03 9.200000e+02 0.000000e+00
      vertex   3.280000e+03 0.000000e+00 0.000000e+00
      vertex   3.130000e+03 1.500000e+02 0.000000e+00
    endloop
  endfacet
  facet normal 0.000000e+00 0.000000e+00 -1.000000e+00
    outer loop
      vertex   3.130000e+03 1.500000e+02 0.000000e+00
      vertex   3.130000e+03 1.143333e+03 0.000000e+00
      vertex   3.280000e+03 9.200000e+02 0.000000e+00
    endloop
  endfacet
  facet normal 0.000000e+00 -0.000000e+00 -1.000000e+00
    outer loop
      vertex   3.280000e+03 1.840000e+03 0.000000e+00
      vertex   3.280000e+03 9.200000e+02 0.000000e+00
      vertex   3.130000e+03 1.143333e+03 0.000000e+00
    endloop
  endfacet
  facet normal 0.000000e+00 0.000000e+00 -1.000000e+00
    outer loop
      vertex   3.130000e+03 1.143333e+03 0.000000e+00
      vertex   3.130000e+03 2.136667e+03 0.000000e+00
      vertex   3.280000e+03 1.840000e+03 0.000000e+00
    endloop
  endfacet
  facet normal 0.000000e+00 -0.000000e+00 -1.000000e+00
    outer loop
      vertex   3.280000e+03 2.760000e+03 0.000000e+00
      vertex   3.280000e+03 1.840000e+03 0.000000e+00
      vertex   3.130000e+03 2.136667e+03 0.000000e+00
    endloop
  endfacet
  facet normal 0.000000e+00 0.000000e+00 -1.000000e+00
    outer loop
      vertex   3.130000e+03 2.136667e+03 0.000000e+00
      vertex   3.130000e+03 3.130000e+03 0.000000e+00
      vertex   3.280000e+03 2.760000e+03 0.000000e+00
    endloop
  endfacet
  facet normal 0.000000e+00 0.000000e+00 -1.000000e+00
    outer loop
      vertex   3.140000e+03 7.280000e+03 0.000000e+00
      vertex   3.140000e+03 8.280000e+03 0.000000e+00
      vertex   3.280000e+03 8.280000e+03 0.000000e+00
    endloop
  endfacet
  facet normal 0.000000e+00 -0.000000e+00 -1.000000e+00
    outer loop
      vertex   3.280000e+03 8.280000e+03 0.000000e+00
      vertex   3.280000e+03 7.360000e+03 0.000000e+00
      vertex   3.140000e+03 7.280000e+03 0.000000e+00
    endloop
  endfacet
  facet normal 0.000000e+00 0.000000e+00 -1.000000e+00
    outer loop
      vertex   3.140000e+03 6.280000e+03 0.000000e+00
      vertex   3.140000e+03 7.280000e+03 0.000000e+00
      vertex   3.280000e+03 7.360000e+03 0.000000e+00
    endloop
  endfacet
  facet normal 0.000000e+00 -0.000000e+00 -1.000000e+00
    outer loop
      vertex   3.280000e+03 7.360000e+03 0.000000e+00
      vertex   3.280000e+03 6.440000e+03 0.000000e+00
      vertex   3.140000e+03 6.280000e+03 0.000000e+00
    endloop
  endfacet
  facet normal 0.000000e+00 0.000000e+00 -1.000000e+00
    outer loop
      vertex   3.140000e+03 5.280000e+03 0.000000e+00
      vertex   3.140000e+03 6.280000e+03 0.000000e+00
      vertex   3.280000e+03 6.440000e+03 0.000000e+00
    endloop
  endfacet
  facet normal 0.000000e+00 -0.000000e+00 -1.000000e+00
    outer loop
      vertex   3.280000e+03 6.440000e+03 0.000000e+00
      vertex   3.280000e+03 5.520000e+03 0.000000e+00
      vertex   3.140000e+03 5.280000e+03 0.000000e+00
    endloop
  endfacet
  facet normal 0.000000e+00 0.000000e+00 -1.000000e+00
    outer loop
      vertex   3.140000e+03 4.280000e+03 0.000000e+00
      vertex   3.140000e+03 5.280000e+03 0.000000e+00
      vertex   3.280000e+03 5.520000e+03 0.000000e+00
    endloop
  endfacet
  facet normal 0.000000e+00 -0.000000e+00 -1.000000e+00
    outer loop
      vertex   3.280000e+03 5.520000e+03 0.000000e+00
      vertex   3.280000e+03 4.600000e+03 0.000000e+00
      vertex   3.140000e+03 4.280000e+03 0.000000e+00
    endloop
  endfacet
  facet normal 0.000000e+00 0.000000e+00 -1.000000e+00
    outer loop
      vertex   3.140000e+03 3.280000e+03 0.000000e+00
      vertex   3.140000e+03 4.280000e+03 0.000000e+00
      vertex   3.280000e+03 4.600000e+03 0.000000e+00
    endloop
  endfacet
  facet normal 0.000000e+00 -0.000000e+00 -1.000000e+00
    outer loop
      vertex   3.280000e+03 4.600000e+03 0.000000e+00
      vertex   3.280000e+03 3.680000e+03 0.000000e+00
      vertex   3.140000e+03 3.280000e+03 0.000000e+00
    endloop
  endfacet
  facet normal 0.000000e+00 0.000000e+00 -1.000000e+00
    outer loop
      vertex   1.048000e+03 1.500000e+02 0.000000e+00
      vertex   1.946000e+03 1.500000e+02 0.000000e+00
      vertex   1.946000e+03 0.000000e+00 0.000000e+00
    endloop
  endfacet
  facet normal 0.000000e+00 0.000000e+00 -1.000000e+00
    outer loop
      vertex   1.946000e+03 0.000000e+00 0.000000e+00
      vertex   9.537143e+02 0.000000e+00 0.000000e+00
      vertex   1.048000e+03 1.500000e+02 0.000000e+00
    endloop
  endfacet
  facet normal 0.000000e+00 0.000000e+00 -1.000000e+00
    outer loop
      vertex   1.500000e+02 1.500000e+02 0.000000e+00
      vertex   1.048000e+03 1.500000e+02 0.000000e+00
      vertex   9.537143e+02 0.000000e+00 0.000000e+00
    endloop
  endfacet
  facet normal 0.000000e+00 0.000000e+00 -1.000000e+00
    outer loop
      vertex   9.537143e+02 0.000000e+00 0.000000e+00
      vertex   0.000000e+00 1.400000e+02 0.000000e+00
      vertex   1.500000e+02 1.500000e+02 0.000000e+00
    endloop
  endfacet
  facet normal 0.000000e+00 -0.000000e+00 -1.000000e+00
    outer loop
      vertex   1.500000e+02 1.143333e+03 0.000000e+00
      vertex   1.500000e+02 1.500000e+02 0.000000e+00
      vertex   0.000000e+00 1.400000e+02 0.000000e+00
    endloop
  endfacet
  facet normal 0.000000e+00 0.000000e+00 -1.000000e+00
    outer loop
      vertex   0.000000e+00 1.400000e+02 0.000000e+00
      vertex   0.000000e+00 9.250000e+02 0.000000e+00
      vertex   1.500000e+02 1.143333e+03 0.000000e+00
    endloop
  endfacet
  facet normal 0.000000e+00 -0.000000e+00 -1.000000e+00
    outer loop
      vertex   1.500000e+02 2.136667e+03 0.000000e+00
      vertex   1.500000e+02 1.143333e+03 0.000000e+00
      vertex   0.000000e+00 9.250000e+02 0.000000e+00
    endloop
  endfacet
  facet normal 0.000000e+00 -0.000000e+00 -1.000000e+00
    outer loop
      vertex   3.280000e+03 3.680000e+03 0.000000e+00
      vertex   3.280000e+03 2.760000e+03 0.000000e+00
      vertex   3.140000e+03 3.280000e+03 0.000000e+00
    endloop
  endfacet
  facet normal 0.000000e+00 0.000000e+00 -1.000000e+00
    outer loop
      vertex   3.130000e+03 3.130000e+03 0.000000e+00
      vertex   3.140000e+03 3.280000e+03 0.000000e+00
      vertex   3.280000e+03 2.760000e+03 0.000000e+00
    endloop
  endfacet
  facet normal 0.000000e+00 0.000000e+00 -1.000000e+00
    outer loop
      vertex   2.355000e+03 3.280000e+03 0.000000e+00
      vertex   3.140000e+03 3.280000e+03 0.000000e+00
      vertex   3.130000e+03 3.130000e+03 0.000000e+00
    endloop
  endfacet
  facet normal 0.000000e+00 0.000000e+00 -1.000000e+00
    outer loop
      vertex   3.130000e+03 3.130000e+03 0.000000e+00
      vertex   2.136667e+03 3.130000e+03 0.000000e+00
      vertex   2.355000e+03 3.280000e+03 0.000000e+00
    endloop
  endfacet
  facet normal 0.000000e+00 0.000000e+00 -1.000000e+00
    outer loop
      vertex   1.570000e+03 3.280000e+03 0.000000e+00
      vertex   2.355000e+03 3.280000e+03 0.000000e+00
      vertex   2.136667e+03 3.130000e+03 0.000000e+00
    endloop
  endfacet
  facet normal 0.000000e+00 0.000000e+00 -1.000000e+00
    outer loop
      vertex   2.136667e+03 3.130000e+03 0.000000e+00
      vertex   1.143333e+03 3.130000e+03 0.000000e+00
      vertex   1.570000e+03 3.280000e+03 0.000000e+00
    endloop
  endfacet
  facet normal 0.000000e+00 0.000000e+00 -1.000000e+00
    outer loop
      vertex   0.000000e+00 9.250000e+02 0.000000e+00
      vertex   0.000000e+00 1.710000e+03 0.000000e+00
      vertex   1.500000e+02 2.136667e+03 0.000000e+00
    endloop
  endfacet
  facet normal -0.000000e+00 0.000000e+00 -1.000000e+00
    outer loop
      vertex   1.500000e+02 2.136667e+03 0.000000e+00
      vertex   0.000000e+00 1.710000e+03 0.000000e+00
      vertex   0.000000e+00 2.495000e+03 0.000000e+00
    endloop
  endfacet
  facet normal 0.000000e+00 -0.000000e+00 -1.000000e+00
    outer loop
      vertex   1.500000e+02 3.130000e+03 0.000000e+00
      vertex   1.500000e+02 2.136667e+03 0.000000e+00
      vertex   0.000000e+00 2.495000e+03 0.000000e+00
    endloop
  endfacet
  facet normal 0.000000e+00 0.000000e+00 -1.000000e+00
    outer loop
      vertex   0.000000e+00 2.495000e+03 0.000000e+00
      vertex   0.000000e+00 3.280000e+03 0.000000e+00
      vertex   1.500000e+02 3.130000e+03 0.000000e+00
    endloop
  endfacet
  facet normal 0.000000e+00 0.000000e+00 -1.000000e+00
    outer loop
      vertex   1.143333e+03 3.130000e+03 0.000000e+00
      vertex   1.500000e+02 3.130000e+03 0.000000e+00
      vertex   0.000000e+00 3.280000e+03 0.000000e+00
    endloop
  endfacet
  facet normal 0.000000e+00 0.000000e+00 -1.000000e+00
    outer loop
      vertex   0.000000e+00 3.280000e+03 0.000000e+00
      vertex   7.850000e+02 3.280000e+03 0.000000e+00
      vertex   1.143333e+03 3.130000e+03 0.000000e+00
    endloop
  endfacet
  facet normal 0.000000e+00 0.000000e+00 -1.000000e+00
    outer loop
      vertex   1.143333e+03 3.130000e+03 0.000000e+00
      vertex   7.850000e+02 3.280000e+03 0.000000e+00
      vertex   1.570000e+03 3.280000e+03 0.000000e+00
    endloop
  endfacet
  facet normal 0.000000e+00 0.000000e+00 1.000000e+00
    outer loop
      vertex   3.140000e+03 3.280000e+03 3.000000e+03
      vertex   1.140000e+03 3.140000e+03 3.000000e+03
      vertex   2.140000e+03 3.140000e+03 3.000000e+03
    endloop
  endfacet
  facet normal 0.000000e+00 -0.000000e+00 1.000000e+00
    outer loop
      vertex   3.280000e+03 7.360000e+03 3.000000e+03
      vertex   3.280000e+03 8.280000e+03 3.000000e+03
      vertex   3.140000e+03 8.280000e+03 3.000000e+03
    endloop
  endfacet
  facet normal 0.000000e+00 0.000000e+00 1.000000e+00
    outer loop
      vertex   3.140000e+03 8.280000e+03 3.000000e+03
      vertex   3.140000e+03 7.280000e+03 3.000000e+03
      vertex   3.280000e+03 7.360000e+03 3.000000e+03
    endloop
  endfacet
  facet normal 0.000000e+00 -0.000000e+00 1.000000e+00
    outer loop
      vertex   3.280000e+03 6.440000e+03 3.000000e+03
      vertex   3.280000e+03 7.360000e+03 3.000000e+03
      vertex   3.140000e+03 7.280000e+03 3.000000e+03
    endloop
  endfacet
  facet normal 0.000000e+00 0.000000e+00 1.000000e+00
    outer loop
      vertex   3.140000e+03 7.280000e+03 3.000000e+03
      vertex   3.140000e+03 6.280000e+03 3.000000e+03
      vertex   3.280000e+03 6.440000e+03 3.000000e+03
    endloop
  endfacet
  facet normal 0.000000e+00 -0.000000e+00 1.000000e+00
    outer loop
      vertex   3.280000e+03 5.520000e+03 3.000000e+03
      vertex   3.280000e+03 6.440000e+03 3.000000e+03
      vertex   3.140000e+03 6.280000e+03 3.000000e+03
    endloop
  endfacet
  facet normal 0.000000e+00 0.000000e+00 1.000000e+00
    outer loop
      vertex   3.140000e+03 6.280000e+03 3.000000e+03
      vertex   3.140000e+03 5.280000e+03 3.000000e+03
      vertex   3.280000e+03 5.520000e+03 3.000000e+03
    endloop
  endfacet
  facet normal 0.000000e+00 -0.000000e+00 1.000000e+00
    outer loop
      vertex   3.280000e+03 4.600000e+03 3.000000e+03
      vertex   3.280000e+03 5.520000e+03 3.000000e+03
      vertex   3.140000e+03 5.280000e+03 3.000000e+03
    endloop
  endfacet
  facet normal 0.000000e+00 0.000000e+00 1.000000e+00
    outer loop
      vertex   3.140000e+03 5.280000e+03 3.000000e+03
      vertex   3.140000e+03 4.280000e+03 3.000000e+03
      vertex   3.280000e+03 4.600000e+03 3.000000e+03
    endloop
  endfacet
  facet normal 0.000000e+00 -0.000000e+00 1.000000e+00
    outer loop
      vertex   3.280000e+03 3.680000e+03 3.000000e+03
      vertex   3.280000e+03 4.600000e+03 3.000000e+03
      vertex   3.140000e+03 4.280000e+03 3.000000e+03
    endloop
  endfacet
  facet normal 0.000000e+00 0.000000e+00 1.000000e+00
    outer loop
      vertex   3.140000e+03 4.280000e+03 3.000000e+03
      vertex   3.140000e+03 3.280000e+03 3.000000e+03
      vertex   3.280000e+03 3.680000e+03 3.000000e+03
    endloop
  endfacet
  facet normal -0.000000e+00 0.000000e+00 1.000000e+00
    outer loop
      vertex   3.140000e+03 3.280000e+03 3.000000e+03
      vertex   3.140000e+03 3.140000e+03 3.000000e+03
      vertex   3.280000e+03 3.680000e+03 3.000000e+03
    endloop
  endfacet
  facet normal 0.000000e+00 0.000000e+00 1.000000e+00
    outer loop
      vertex   2.140000e+03 3.140000e+03 3.000000e+03
      vertex   3.140000e+03 3.140000e+03 3.000000e+03
      vertex   3.140000e+03 3.280000e+03 3.000000e+03
    endloop
  endfacet
  facet normal 0.000000e+00 0.000000e+00 1.000000e+00
    outer loop
      vertex   1.140000e+03 1.400000e+02 3.000000e+03
      vertex   1.400000e+02 1.400000e+02 3.000000e+03
      vertex   5.200000e+02 -6.639134e-14 3.000000e+03
    endloop
  endfacet
  facet normal -0.000000e+00 0.000000e+00 1.000000e+00
    outer loop
      vertex   5.200000e+02 -6.639134e-14 3.000000e+03
      vertex   1.440000e+03 -1.838529e-13 3.000000e+03
      vertex   1.140000e+03 1.400000e+02 3.000000e+03
    endloop
  endfacet
  facet normal 0.000000e+00 0.000000e+00 1.000000e+00
    outer loop
      vertex   2.140000e+03 1.400000e+02 3.000000e+03
      vertex   1.140000e+03 1.400000e+02 3.000000e+03
      vertex   1.440000e+03 -1.838529e-13 3.000000e+03
    endloop
  endfacet
  facet normal -0.000000e+00 0.000000e+00 1.000000e+00
    outer loop
      vertex   1.440000e+03 -1.838529e-13 3.000000e+03
      vertex   2.360000e+03 -3.013145e-13 3.000000e+03
      vertex   2.140000e+03 1.400000e+02 3.000000e+03
    endloop
  endfacet
  facet normal 0.000000e+00 0.000000e+00 1.000000e+00
    outer loop
      vertex   3.140000e+03 1.400000e+02 3.000000e+03
      vertex   2.140000e+03 1.400000e+02 3.000000e+03
      vertex   2.360000e+03 -3.013145e-13 3.000000e+03
    endloop
  endfacet
  facet normal 0.000000e+00 0.000000e+00 1.000000e+00
    outer loop
      vertex   2.360000e+03 -3.013145e-13 3.000000e+03
      vertex   3.280000e+03 0.000000e+00 3.000000e+03
      vertex   3.140000e+03 1.400000e+02 3.000000e+03
    endloop
  endfacet
  facet normal 0.000000e+00 0.000000e+00 1.000000e+00
    outer loop
      vertex   3.140000e+03 1.140000e+03 3.000000e+03
      vertex   3.140000e+03 1.400000e+02 3.000000e+03
      vertex   3.280000e+03 0.000000e+00 3.000000e+03
    endloop
  endfacet
  facet normal 0.000000e+00 -0.000000e+00 1.000000e+00
    outer loop
      vertex   3.280000e+03 0.000000e+00 3.000000e+03
      vertex   3.280000e+03 9.200000e+02 3.000000e+03
      vertex   3.140000e+03 1.140000e+03 3.000000e+03
    endloop
  endfacet
  facet normal 0.000000e+00 0.000000e+00 1.000000e+00
    outer loop
      vertex   3.140000e+03 2.140000e+03 3.000000e+03
      vertex   3.140000e+03 1.140000e+03 3.000000e+03
      vertex   3.280000e+03 9.200000e+02 3.000000e+03
    endloop
  endfacet
  facet normal 0.000000e+00 -0.000000e+00 1.000000e+00
    outer loop
      vertex   3.280000e+03 9.200000e+02 3.000000e+03
      vertex   3.280000e+03 1.840000e+03 3.000000e+03
      vertex   3.140000e+03 2.140000e+03 3.000000e+03
    endloop
  endfacet
  facet normal 0.000000e+00 0.000000e+00 1.000000e+00
    outer loop
      vertex   3.140000e+03 3.140000e+03 3.000000e+03
      vertex   3.140000e+03 2.140000e+03 3.000000e+03
      vertex   3.280000e+03 1.840000e+03 3.000000e+03
    endloop
  endfacet
  facet normal 0.000000e+00 -0.000000e+00 1.000000e+00
    outer loop
      vertex   3.280000e+03 1.840000e+03 3.000000e+03
      vertex   3.280000e+03 2.760000e+03 3.000000e+03
      vertex   3.140000e+03 3.140000e+03 3.000000e+03
    endloop
  endfacet
  facet normal 0.000000e+00 -0.000000e+00 1.000000e+00
    outer loop
      vertex   3.280000e+03 2.760000e+03 3.000000e+03
      vertex   3.280000e+03 3.680000e+03 3.000000e+03
      vertex   3.140000e+03 3.140000e+03 3.000000e+03
    endloop
  endfacet
  facet normal 0.000000e+00 0.000000e+00 1.000000e+00
    outer loop
      vertex   3.140000e+03 3.280000e+03 3.000000e+03
      vertex   1.400000e+02 3.140000e+03 3.000000e+03
      vertex   1.140000e+03 3.140000e+03 3.000000e+03
    endloop
  endfacet
  facet normal 0.000000e+00 0.000000e+00 1.000000e+00
    outer loop
      vertex   1.400000e+02 3.140000e+03 3.000000e+03
      vertex   3.140000e+03 3.280000e+03 3.000000e+03
      vertex   2.355000e+03 3.280000e+03 3.000000e+03
    endloop
  endfacet
  facet normal 0.000000e+00 0.000000e+00 1.000000e+00
    outer loop
      vertex   1.400000e+02 3.140000e+03 3.000000e+03
      vertex   2.355000e+03 3.280000e+03 3.000000e+03
      vertex   1.570000e+03 3.280000e+03 3.000000e+03
    endloop
  endfacet
  facet normal 0.000000e+00 0.000000e+00 1.000000e+00
    outer loop
      vertex   -4.000000e+03 1.400000e+02 3.000000e+03
      vertex   -5.000000e+03 1.400000e+02 3.000000e+03
      vertex   -5.000000e+03 6.383782e-13 3.000000e+03
    endloop
  endfacet
  facet normal -0.000000e+00 0.000000e+00 1.000000e+00
    outer loop
      vertex   -5.000000e+03 6.383782e-13 3.000000e+03
      vertex   -4.080000e+03 5.209166e-13 3.000000e+03
      vertex   -4.000000e+03 1.400000e+02 3.000000e+03
    endloop
  endfacet
  facet normal 0.000000e+00 0.000000e+00 1.000000e+00
    outer loop
      vertex   -3.000000e+03 1.400000e+02 3.000000e+03
      vertex   -4.000000e+03 1.400000e+02 3.000000e+03
      vertex   -4.080000e+03 5.209166e-13 3.000000e+03
    endloop
  endfacet
  facet normal -0.000000e+00 0.000000e+00 1.000000e+00
    outer loop
      vertex   -4.080000e+03 5.209166e-13 3.000000e+03
      vertex   -3.160000e+03 4.034550e-13 3.000000e+03
      vertex   -3.000000e+03 1.400000e+02 3.000000e+03
    endloop
  endfacet
  facet normal 0.000000e+00 0.000000e+00 1.000000e+00
    outer loop
      vertex   -2.000000e+03 1.400000e+02 3.000000e+03
      vertex   -3.000000e+03 1.400000e+02 3.000000e+03
      vertex   -3.160000e+03 4.034550e-13 3.000000e+03
    endloop
  endfacet
  facet normal -0.000000e+00 0.000000e+00 1.000000e+00
    outer loop
      vertex   -3.160000e+03 4.034550e-13 3.000000e+03
      vertex   -2.240000e+03 2.859935e-13 3.000000e+03
      vertex   -2.000000e+03 1.400000e+02 3.000000e+03
    endloop
  endfacet
  facet normal 0.000000e+00 0.000000e+00 1.000000e+00
    outer loop
      vertex   -1.000000e+03 1.400000e+02 3.000000e+03
      vertex   -2.000000e+03 1.400000e+02 3.000000e+03
      vertex   -2.240000e+03 2.859935e-13 3.000000e+03
    endloop
  endfacet
  facet normal -0.000000e+00 0.000000e+00 1.000000e+00
    outer loop
      vertex   -2.240000e+03 2.859935e-13 3.000000e+03
      vertex   -1.320000e+03 1.685319e-13 3.000000e+03
      vertex   -1.000000e+03 1.400000e+02 3.000000e+03
    endloop
  endfacet
  facet normal 0.000000e+00 0.000000e+00 1.000000e+00
    outer loop
      vertex   0.000000e+00 1.400000e+02 3.000000e+03
      vertex   -1.000000e+03 1.400000e+02 3.000000e+03
      vertex   -1.320000e+03 1.685319e-13 3.000000e+03
    endloop
  endfacet
  facet normal -0.000000e+00 0.000000e+00 1.000000e+00
    outer loop
      vertex   -1.320000e+03 1.685319e-13 3.000000e+03
      vertex   -4.000000e+02 5.107026e-14 3.000000e+03
      vertex   0.000000e+00 1.400000e+02 3.000000e+03
    endloop
  endfacet
  facet normal 0.000000e+00 0.000000e+00 1.000000e+00
    outer loop
      vertex   1.400000e+02 3.140000e+03 3.000000e+03
      vertex   1.570000e+03 3.280000e+03 3.000000e+03
      vertex   7.850000e+02 3.280000e+03 3.000000e+03
    endloop
  endfacet
  facet normal 0.000000e+00 0.000000e+00 1.000000e+00
    outer loop
      vertex   7.850000e+02 3.280000e+03 3.000000e+03
      vertex   0.000000e+00 3.280000e+03 3.000000e+03
      vertex   1.400000e+02 3.140000e+03 3.000000e+03
    endloop
  endfacet
  facet normal 0.000000e+00 -0.000000e+00 1.000000e+00
    outer loop
      vertex   1.400000e+02 2.140000e+03 3.000000e+03
      vertex   1.400000e+02 3.140000e+03 3.000000e+03
      vertex   0.000000e+00 3.280000e+03 3.000000e+03
    endloop
  endfacet
  facet normal -0.000000e+00 0.000000e+00 1.000000e+00
    outer loop
      vertex   -4.000000e+02 5.107026e-14 3.000000e+03
      vertex   5.200000e+02 -6.639134e-14 3.000000e+03
      vertex   0.000000e+00 1.400000e+02 3.000000e+03
    endloop
  endfacet
  facet normal 0.000000e+00 0.000000e+00 1.000000e+00
    outer loop
      vertex   1.400000e+02 1.400000e+02 3.000000e+03
      vertex   0.000000e+00 1.400000e+02 3.000000e+03
      vertex   5.200000e+02 -6.639134e-14 3.000000e+03
    endloop
  endfacet
  facet normal 0.000000e+00 0.000000e+00 1.000000e+00
    outer loop
      vertex   0.000000e+00 9.250000e+02 3.000000e+03
      vertex   0.000000e+00 1.400000e+02 3.000000e+03
      vertex   1.400000e+02 1.400000e+02 3.000000e+03
    endloop
  endfacet
  facet normal 0.000000e+00 -0.000000e+00 1.000000e+00
    outer loop
      vertex   1.400000e+02 1.400000e+02 3.000000e+03
      vertex   1.400000e+02 1.140000e+03 3.000000e+03
      vertex   0.000000e+00 9.250000e+02 3.000000e+03
    endloop
  endfacet
  facet normal 0.000000e+00 0.000000e+00 1.000000e+00
    outer loop
      vertex   0.000000e+00 1.710000e+03 3.000000e+03
      vertex   0.000000e+00 9.250000e+02 3.000000e+03
      vertex   1.400000e+02 1.140000e+03 3.000000e+03
    endloop
  endfacet
  facet normal 0.000000e+00 -0.000000e+00 1.000000e+00
    outer loop
      vertex   1.400000e+02 1.140000e+03 3.000000e+03
      vertex   1.400000e+02 2.140000e+03 3.000000e+03
      vertex   0.000000e+00 1.710000e+03 3.000000e+03
    endloop
  endfacet
  facet normal 0.000000e+00 0.000000e+00 1.000000e+00
    outer loop
      vertex   1.400000e+02 2.140000e+03 3.000000e+03
      vertex   0.000000e+00 2.495000e+03 3.000000e+03
      vertex   0.000000e+00 1.710000e+03 3.000000e+03
    endloop
  endfacet
  facet normal 0.000000e+00 0.000000e+00 1.000000e+00
    outer loop
      vertex   0.000000e+00 3.280000e+03 3.000000e+03
      vertex   0.000000e+00 2.495000e+03 3.000000e+03
      vertex   1.400000e+02 2.140000e+03 3.000000e+03
    endloop
  endfacet
  facet normal -1.000000e+00 0.000000e+00 -0.000000e+00
    outer loop
      vertex   3.140000e+03 8.280000e+03 1.000000e+03
      vertex   3.140000e+03 8.280000e+03 0.000000e+00
      vertex   3.140000e+03 7.280000e+03 0.000000e+00
    endloop
  endfacet
  facet normal -1.000000e+00 0.000000e+00 -0.000000e+00
    outer loop
      vertex   3.140000e+03 8.280000e+03 2.000000e+03
      vertex   3.140000e+03 8.280000e+03 1.000000e+03
      vertex   3.140000e+03 7.280000e+03 0.000000e+00
    endloop
  endfacet
  facet normal -1.000000e+00 0.000000e+00 0.000000e+00
    outer loop
      vertex   3.140000e+03 7.280000e+03 3.000000e+03
      vertex   3.140000e+03 8.280000e+03 3.000000e+03
      vertex   3.140000e+03 8.280000e+03 2.000000e+03
    endloop
  endfacet
  facet normal -1.000000e+00 0.000000e+00 0.000000e+00
    outer loop
      vertex   3.140000e+03 7.280000e+03 0.000000e+00
      vertex   3.140000e+03 7.280000e+03 3.000000e+03
      vertex   3.140000e+03 8.280000e+03 2.000000e+03
    endloop
  endfacet
  facet normal -1.000000e+00 0.000000e+00 0.000000e+00
    outer loop
      vertex   3.140000e+03 6.280000e+03 3.000000e+03
      vertex   3.140000e+03 7.280000e+03 3.000000e+03
      vertex   3.140000e+03 7.280000e+03 0.000000e+00
    endloop
  endfacet
  facet normal -1.000000e+00 0.000000e+00 0.000000e+00
    outer loop
      vertex   3.140000e+03 7.280000e+03 0.000000e+00
      vertex   3.140000e+03 6.280000e+03 0.000000e+00
      vertex   3.140000e+03 6.280000e+03 3.000000e+03
    endloop
  endfacet
  facet normal -1.000000e+00 0.000000e+00 0.000000e+00
    outer loop
      vertex   3.140000e+03 5.280000e+03 3.000000e+03
      vertex   3.140000e+03 6.280000e+03 3.000000e+03
      vertex   3.140000e+03 6.280000e+03 0.000000e+00
    endloop
  endfacet
  facet normal -1.000000e+00 0.000000e+00 0.000000e+00
    outer loop
      vertex   3.140000e+03 6.280000e+03 0.000000e+00
      vertex   3.140000e+03 5.280000e+03 0.000000e+00
      vertex   3.140000e+03 5.280000e+03 3.000000e+03
    endloop
  endfacet
  facet normal -1.000000e+00 0.000000e+00 0.000000e+00
    outer loop
      vertex   3.140000e+03 4.280000e+03 3.000000e+03
      vertex   3.140000e+03 5.280000e+03 3.000000e+03
      vertex   3.140000e+03 5.280000e+03 0.000000e+00
    endloop
  endfacet
  facet normal -1.000000e+00 0.000000e+00 0.000000e+00
    outer loop
      vertex   3.140000e+03 5.280000e+03 0.000000e+00
      vertex   3.140000e+03 4.280000e+03 0.000000e+00
      vertex   3.140000e+03 4.280000e+03 3.000000e+03
    endloop
  endfacet
  facet normal -1.000000e+00 0.000000e+00 0.000000e+00
    outer loop
      vertex   3.140000e+03 4.280000e+03 0.000000e+00
      vertex   3.140000e+03 3.280000e+03 0.000000e+00
      vertex   3.140000e+03 3.280000e+03 1.000000e+03
    endloop
  endfacet
  facet normal -1.000000e+00 0.000000e+00 -0.000000e+00
    outer loop
      vertex   3.140000e+03 4.280000e+03 3.000000e+03
      vertex   3.140000e+03 4.280000e+03 0.000000e+00
      vertex   3.140000e+03 3.280000e+03 1.000000e+03
    endloop
  endfacet
  facet normal -1.000000e+00 0.000000e+00 0.000000e+00
    outer loop
      vertex   3.140000e+03 3.280000e+03 1.000000e+03
      vertex   3.140000e+03 3.280000e+03 2.000000e+03
      vertex   3.140000e+03 4.280000e+03 3.000000e+03
    endloop
  endfacet
  facet normal -1.000000e+00 0.000000e+00 0.000000e+00
    outer loop
      vertex   3.140000e+03 3.280000e+03 2.000000e+03
      vertex   3.140000e+03 3.280000e+03 3.000000e+03
      vertex   3.140000e+03 4.280000e+03 3.000000e+03
    endloop
  endfacet
  facet normal -1.000000e+00 0.000000e+00 -0.000000e+00
    outer loop
      vertex   0.000000e+00 3.280000e+03 1.000000e+03
      vertex   0.000000e+00 3.280000e+03 0.000000e+00
      vertex   0.000000e+00 2.495000e+03 0.000000e+00
    endloop
  endfacet
  facet normal -1.000000e+00 0.000000e+00 -0.000000e+00
    outer loop
      vertex   0.000000e+00 3.280000e+03 2.000000e+03
      vertex   0.000000e+00 3.280000e+03 1.000000e+03
      vertex   0.000000e+00 2.495000e+03 0.000000e+00
    endloop
  endfacet
  facet normal -1.000000e+00 0.000000e+00 0.000000e+00
    outer loop
      vertex   0.000000e+00 2.495000e+03 3.000000e+03
      vertex   0.000000e+00 3.280000e+03 3.000000e+03
      vertex   0.000000e+00 3.280000e+03 2.000000e+03
    endloop
  endfacet
  facet normal -1.000000e+00 0.000000e+00 0.000000e+00
    outer loop
      vertex   0.000000e+00 2.495000e+03 0.000000e+00
      vertex   0.000000e+00 2.495000e+03 3.000000e+03
      vertex   0.000000e+00 3.280000e+03 2.000000e+03
    endloop
  endfacet
  facet normal -1.000000e+00 0.000000e+00 0.000000e+00
    outer loop
      vertex   0.000000e+00 1.710000e+03 3.000000e+03
      vertex   0.000000e+00 2.495000e+03 3.000000e+03
      vertex   0.000000e+00 2.495000e+03 0.000000e+00
    endloop
  endfacet
  facet normal -1.000000e+00 0.000000e+00 0.000000e+00
    outer loop
      vertex   0.000000e+00 2.495000e+03 0.000000e+00
      vertex   0.000000e+00 1.710000e+03 0.000000e+00
      vertex   0.000000e+00 1.710000e+03 3.000000e+03
    endloop
  endfacet
  facet normal -1.000000e+00 0.000000e+00 0.000000e+00
    outer loop
      vertex   0.000000e+00 9.250000e+02 3.000000e+03
      vertex   0.000000e+00 1.710000e+03 3.000000e+03
      vertex   0.000000e+00 1.710000e+03 0.000000e+00
    endloop
  endfacet
  facet normal -1.000000e+00 0.000000e+00 0.000000e+00
    outer loop
      vertex   0.000000e+00 1.710000e+03 0.000000e+00
      vertex   0.000000e+00 9.250000e+02 0.000000e+00
      vertex   0.000000e+00 9.250000e+02 3.000000e+03
    endloop
  endfacet
  facet normal -1.000000e+00 0.000000e+00 0.000000e+00
    outer loop
      vertex   0.000000e+00 9.250000e+02 0.000000e+00
      vertex   0.000000e+00 1.400000e+02 0.000000e+00
      vertex   0.000000e+00 1.400000e+02 1.000000e+03
    endloop
  endfacet
  facet normal -1.000000e+00 0.000000e+00 -0.000000e+00
    outer loop
      vertex   0.000000e+00 9.250000e+02 3.000000e+03
      vertex   0.000000e+00 9.250000e+02 0.000000e+00
      vertex   0.000000e+00 1.400000e+02 1.000000e+03
    endloop
  endfacet
  facet normal -1.000000e+00 0.000000e+00 0.000000e+00
    outer loop
      vertex   0.000000e+00 1.400000e+02 1.000000e+03
      vertex   0.000000e+00 1.400000e+02 2.000000e+03
      vertex   0.000000e+00 9.250000e+02 3.000000e+03
    endloop
  endfacet
  facet normal -1.000000e+00 0.000000e+00 0.000000e+00
    outer loop
      vertex   0.000000e+00 1.400000e+02 2.000000e+03
      vertex   0.000000e+00 1.400000e+02 3.000000e+03
      vertex   0.000000e+00 9.250000e+02 3.000000e+03
    endloop
  endfacet
  facet normal 0.000000e+00 1.000000e+00 -3.172066e-16
    outer loop
      vertex   3.140000e+03 3.280000e+03 0.000000e+00
      vertex   2.355000e+03 3.280000e+03 0.000000e+00
      vertex   2.510000e+03 3.280000e+03 1.400000e+03
    endloop
  endfacet
  facet normal 0.000000e+00 1.000000e+00 -3.172066e-16
    outer loop
      vertex   2.510000e+03 3.280000e+03 1.400000e+03
      vertex   2.355000e+03 3.280000e+03 0.000000e+00
      vertex   1.570000e+03 3.280000e+03 0.000000e+00
    endloop
  endfacet
  facet normal -1.351662e-31 1.000000e+00 -3.172066e-16
    outer loop
      vertex   1.570000e+03 3.280000e+03 0.000000e+00
      vertex   1.880000e+03 3.280000e+03 1.400000e+03
      vertex   2.510000e+03 3.280000e+03 1.400000e+03
    endloop
  endfacet
  facet normal 0.000000e+00 1.000000e+00 0.000000e+00
    outer loop
      vertex   7.850000e+02 3.280000e+03 0.000000e+00
      vertex   0.000000e+00 3.280000e+03 0.000000e+00
      vertex   0.000000e+00 3.280000e+03 1.000000e+03
    endloop
  endfacet
  facet normal 7.049035e-16 1.000000e+00 -2.290936e-16
    outer loop
      vertex   6.100000e+02 3.280000e+03 1.400000e+03
      vertex   1.240000e+03 3.280000e+03 1.400000e+03
      vertex   7.850000e+02 3.280000e+03 0.000000e+00
    endloop
  endfacet
  facet normal -4.806160e-16 1.000000e+00 -3.772836e-16
    outer loop
      vertex   0.000000e+00 3.280000e+03 1.000000e+03
      vertex   6.100000e+02 3.280000e+03 1.400000e+03
      vertex   7.850000e+02 3.280000e+03 0.000000e+00
    endloop
  endfacet
  facet normal -7.280151e-16 1.000000e+00 9.398362e-32
    outer loop
      vertex   6.100000e+02 3.280000e+03 2.260000e+03
      vertex   6.100000e+02 3.280000e+03 1.400000e+03
      vertex   0.000000e+00 3.280000e+03 1.000000e+03
    endloop
  endfacet
  facet normal -7.280151e-16 1.000000e+00 0.000000e+00
    outer loop
      vertex   0.000000e+00 3.280000e+03 1.000000e+03
      vertex   0.000000e+00 3.280000e+03 2.000000e+03
      vertex   6.100000e+02 3.280000e+03 2.260000e+03
    endloop
  endfacet
  facet normal -7.280151e-16 1.000000e+00 0.000000e+00
    outer loop
      vertex   0.000000e+00 3.280000e+03 2.000000e+03
      vertex   0.000000e+00 3.280000e+03 3.000000e+03
      vertex   6.100000e+02 3.280000e+03 2.260000e+03
    endloop
  endfacet
  facet normal -0.000000e+00 1.000000e+00 0.000000e+00
    outer loop
      vertex   2.355000e+03 3.280000e+03 3.000000e+03
      vertex   3.140000e+03 3.280000e+03 3.000000e+03
      vertex   2.510000e+03 3.280000e+03 2.260000e+03
    endloop
  endfacet
  facet normal -0.000000e+00 1.000000e+00 0.000000e+00
    outer loop
      vertex   2.510000e+03 3.280000e+03 2.260000e+03
      vertex   3.140000e+03 3.280000e+03 3.000000e+03
      vertex   3.140000e+03 3.280000e+03 2.000000e+03
    endloop
  endfacet
  facet normal 2.131104e-16 1.000000e+00 5.163828e-16
    outer loop
      vertex   2.510000e+03 3.280000e+03 1.400000e+03
      vertex   2.510000e+03 3.280000e+03 2.260000e+03
      vertex   3.140000e+03 3.280000e+03 2.000000e+03
    endloop
  endfacet
  facet normal 7.049035e-16 1.000000e+00 0.000000e+00
    outer loop
      vertex   3.140000e+03 3.280000e+03 2.000000e+03
      vertex   3.140000e+03 3.280000e+03 1.000000e+03
      vertex   2.510000e+03 3.280000e+03 1.400000e+03
    endloop
  endfacet
  facet normal 7.049035e-16 1.000000e+00 0.000000e+00
    outer loop
      vertex   2.510000e+03 3.280000e+03 1.400000e+03
      vertex   3.140000e+03 3.280000e+03 1.000000e+03
      vertex   3.140000e+03 3.280000e+03 0.000000e+00
    endloop
  endfacet
  facet normal 0.000000e+00 1.000000e+00 -3.172066e-16
    outer loop
      vertex   1.570000e+03 3.280000e+03 0.000000e+00
      vertex   7.850000e+02 3.280000e+03 0.000000e+00
      vertex   1.880000e+03 3.280000e+03 1.400000e+03
    endloop
  endfacet
  facet normal -6.938894e-16 1.000000e+00 2.255141e-16
    outer loop
      vertex   1.240000e+03 3.280000e+03 1.400000e+03
      vertex   1.880000e+03 3.280000e+03 1.400000e+03
      vertex   7.850000e+02 3.280000e+03 0.000000e+00
    endloop
  endfacet
  facet normal -6.938894e-16 1.000000e+00 1.791563e-31
    outer loop
      vertex   1.880000e+03 3.280000e+03 2.260000e+03
      vertex   1.880000e+03 3.280000e+03 1.400000e+03
      vertex   1.240000e+03 3.280000e+03 1.400000e+03
    endloop
  endfacet
  facet normal 0.000000e+00 1.000000e+00 -5.163828e-16
    outer loop
      vertex   1.240000e+03 3.280000e+03 1.400000e+03
      vertex   1.240000e+03 3.280000e+03 2.260000e+03
      vertex   1.880000e+03 3.280000e+03 2.260000e+03
    endloop
  endfacet
  facet normal 0.000000e+00 1.000000e+00 6.001206e-16
    outer loop
      vertex   6.100000e+02 3.280000e+03 2.260000e+03
      vertex   0.000000e+00 3.280000e+03 3.000000e+03
      vertex   7.850000e+02 3.280000e+03 3.000000e+03
    endloop
  endfacet
  facet normal 0.000000e+00 1.000000e+00 6.001206e-16
    outer loop
      vertex   6.100000e+02 3.280000e+03 2.260000e+03
      vertex   7.850000e+02 3.280000e+03 3.000000e+03
      vertex   1.570000e+03 3.280000e+03 3.000000e+03
    endloop
  endfacet
  facet normal 0.000000e+00 1.000000e+00 6.001206e-16
    outer loop
      vertex   1.570000e+03 3.280000e+03 3.000000e+03
      vertex   1.240000e+03 3.280000e+03 2.260000e+03
      vertex   6.100000e+02 3.280000e+03 2.260000e+03
    endloop
  endfacet
  facet normal -0.000000e+00 1.000000e+00 6.001206e-16
    outer loop
      vertex   1.570000e+03 3.280000e+03 3.000000e+03
      vertex   2.355000e+03 3.280000e+03 3.000000e+03
      vertex   1.240000e+03 3.280000e+03 2.260000e+03
    endloop
  endfacet
  facet normal 0.000000e+00 1.000000e+00 6.001206e-16
    outer loop
      vertex   1.880000e+03 3.280000e+03 2.260000e+03
      vertex   1.240000e+03 3.280000e+03 2.260000e+03
      vertex   2.355000e+03 3.280000e+03 3.000000e+03
    endloop
  endfacet
  facet normal 7.049035e-16 1.000000e+00 1.476487e-16
    outer loop
      vertex   2.510000e+03 3.280000e+03 2.260000e+03
      vertex   1.880000e+03 3.280000e+03 2.260000e+03
      vertex   2.355000e+03 3.280000e+03 3.000000e+03
    endloop
  endfacet
  facet normal 0.000000e+00 -1.000000e+00 0.000000e+00
    outer loop
      vertex   1.240000e+03 3.140000e+03 2.260000e+03
      vertex   1.240000e+03 3.140000e+03 1.400000e+03
      vertex   1.880000e+03 3.140000e+03 1.400000e+03
    endloop
  endfacet
  facet normal 0.000000e+00 -1.000000e+00 0.000000e+00
    outer loop
      vertex   2.510000e+03 3.140000e+03 1.400000e+03
      vertex   3.140000e+03 3.140000e+03 1.080000e+03
      vertex   3.140000e+03 3.140000e+03 2.040000e+03
    endloop
  endfacet
  facet normal 7.031596e-16 -1.000000e+00 5.163828e-16
    outer loop
      vertex   6.100000e+02 3.140000e+03 1.400000e+03
      vertex   6.100000e+02 3.140000e+03 2.260000e+03
      vertex   1.400000e+02 3.140000e+03 2.040000e+03
    endloop
  endfacet
  facet normal 0.000000e+00 -1.000000e+00 0.000000e+00
    outer loop
      vertex   1.400000e+02 3.140000e+03 2.040000e+03
      vertex   1.400000e+02 3.140000e+03 1.080000e+03
      vertex   6.100000e+02 3.140000e+03 1.400000e+03
    endloop
  endfacet
  facet normal 7.049035e-16 -1.000000e+00 -1.035327e-15
    outer loop
      vertex   1.240000e+03 3.140000e+03 1.400000e+03
      vertex   6.100000e+02 3.140000e+03 1.400000e+03
      vertex   1.400000e+02 3.140000e+03 1.080000e+03
    endloop
  endfacet
  facet normal 4.037175e-16 -1.000000e+00 0.000000e+00
    outer loop
      vertex   1.400000e+02 3.140000e+03 1.080000e+03
      vertex   1.400000e+02 3.140000e+03 1.200000e+02
      vertex   1.240000e+03 3.140000e+03 1.400000e+03
    endloop
  endfacet
  facet normal 0.000000e+00 -1.000000e+00 3.469447e-16
    outer loop
      vertex   1.400000e+02 3.140000e+03 1.200000e+02
      vertex   1.880000e+03 3.140000e+03 1.400000e+03
      vertex   1.240000e+03 3.140000e+03 1.400000e+03
    endloop
  endfacet
  facet normal -5.245794e-16 -1.000000e+00 5.163828e-16
    outer loop
      vertex   3.140000e+03 3.140000e+03 2.040000e+03
      vertex   2.510000e+03 3.140000e+03 2.260000e+03
      vertex   2.510000e+03 3.140000e+03 1.400000e+03
    endloop
  endfacet
  facet normal -7.049035e-16 -1.000000e+00 0.000000e+00
    outer loop
      vertex   3.140000e+03 3.140000e+03 2.040000e+03
      vertex   3.140000e+03 3.140000e+03 3.000000e+03
      vertex   2.510000e+03 3.140000e+03 2.260000e+03
    endloop
  endfacet
  facet normal -4.230271e-31 -1.000000e+00 -6.001206e-16
    outer loop
      vertex   1.880000e+03 3.140000e+03 2.260000e+03
      vertex   2.510000e+03 3.140000e+03 2.260000e+03
      vertex   3.140000e+03 3.140000e+03 3.000000e+03
    endloop
  endfacet
  facet normal -0.000000e+00 -1.000000e+00 -6.001206e-16
    outer loop
      vertex   3.140000e+03 3.140000e+03 3.000000e+03
      vertex   2.140000e+03 3.140000e+03 3.000000e+03
      vertex   1.880000e+03 3.140000e+03 2.260000e+03
    endloop
  endfacet
  facet normal -0.000000e+00 -1.000000e+00 -6.001206e-16
    outer loop
      vertex   2.140000e+03 3.140000e+03 3.000000e+03
      vertex   1.140000e+03 3.140000e+03 3.000000e+03
      vertex   1.880000e+03 3.140000e+03 2.260000e+03
    endloop
  endfacet
  facet normal 0.000000e+00 -1.000000e+00 3.469447e-16
    outer loop
      vertex   1.880000e+03 3.140000e+03 1.400000e+03
      vertex   1.400000e+02 3.140000e+03 1.200000e+02
      vertex   1.140000e+03 3.140000e+03 1.200000e+02
    endloop
  endfacet
  facet normal 0.000000e+00 -1.000000e+00 3.469447e-16
    outer loop
      vertex   1.880000e+03 3.140000e+03 1.400000e+03
      vertex   1.140000e+03 3.140000e+03 1.200000e+02
      vertex   2.140000e+03 3.140000e+03 1.200000e+02
    endloop
  endfacet
  facet normal -7.049035e-16 -1.000000e+00 2.037612e-16
    outer loop
      vertex   2.510000e+03 3.140000e+03 1.400000e+03
      vertex   1.880000e+03 3.140000e+03 1.400000e+03
      vertex   2.140000e+03 3.140000e+03 1.200000e+02
    endloop
  endfacet
  facet normal 0.000000e+00 -1.000000e+00 -0.000000e+00
    outer loop
      vertex   2.510000e+03 3.140000e+03 1.400000e+03
      vertex   2.140000e+03 3.140000e+03 1.200000e+02
      vertex   3.140000e+03 3.140000e+03 1.200000e+02
    endloop
  endfacet
  facet normal 0.000000e+00 -1.000000e+00 0.000000e+00
    outer loop
      vertex   3.140000e+03 3.140000e+03 1.200000e+02
      vertex   3.140000e+03 3.140000e+03 1.080000e+03
      vertex   2.510000e+03 3.140000e+03 1.400000e+03
    endloop
  endfacet
  facet normal 0.000000e+00 -1.000000e+00 0.000000e+00
    outer loop
      vertex   1.880000e+03 3.140000e+03 1.400000e+03
      vertex   1.880000e+03 3.140000e+03 2.260000e+03
      vertex   1.240000e+03 3.140000e+03 2.260000e+03
    endloop
  endfacet
  facet normal 0.000000e+00 -1.000000e+00 -6.001206e-16
    outer loop
      vertex   1.240000e+03 3.140000e+03 2.260000e+03
      vertex   1.880000e+03 3.140000e+03 2.260000e+03
      vertex   1.140000e+03 3.140000e+03 3.000000e+03
    endloop
  endfacet
  facet normal 0.000000e+00 -1.000000e+00 -6.001206e-16
    outer loop
      vertex   6.100000e+02 3.140000e+03 2.260000e+03
      vertex   1.240000e+03 3.140000e+03 2.260000e+03
      vertex   1.140000e+03 3.140000e+03 3.000000e+03
    endloop
  endfacet
  facet normal -0.000000e+00 -1.000000e+00 -6.001206e-16
    outer loop
      vertex   1.140000e+03 3.140000e+03 3.000000e+03
      vertex   1.400000e+02 3.140000e+03 3.000000e+03
      vertex   6.100000e+02 3.140000e+03 2.260000e+03
    endloop
  endfacet
  facet normal 9.448707e-16 -1.000000e+00 0.000000e+00
    outer loop
      vertex   6.100000e+02 3.140000e+03 2.260000e+03
      vertex   1.400000e+02 3.140000e+03 3.000000e+03
      vertex   1.400000e+02 3.140000e+03 2.040000e+03
    endloop
  endfacet
  facet normal 1.000000e+00 0.000000e+00 1.290957e-16
    outer loop
      vertex   6.100000e+02 3.280000e+03 2.260000e+03
      vertex   6.100000e+02 3.140000e+03 2.260000e+03
      vertex   6.100000e+02 3.140000e+03 1.400000e+03
    endloop
  endfacet
  facet normal 1.000000e+00 1.586033e-15 -1.290957e-16
    outer loop
      vertex   6.100000e+02 3.140000e+03 1.400000e+03
      vertex   6.100000e+02 3.280000e+03 1.400000e+03
      vertex   6.100000e+02 3.280000e+03 2.260000e+03
    endloop
  endfacet
  facet normal 0.000000e+00 -0.000000e+00 -1.000000e+00
    outer loop
      vertex   1.240000e+03 3.280000e+03 2.260000e+03
      vertex   1.240000e+03 3.140000e+03 2.260000e+03
      vertex   6.100000e+02 3.140000e+03 2.260000e+03
    endloop
  endfacet
  facet normal 0.000000e+00 0.000000e+00 -1.000000e+00
    outer loop
      vertex   6.100000e+02 3.140000e+03 2.260000e+03
      vertex   6.100000e+02 3.280000e+03 2.260000e+03
      vertex   1.240000e+03 3.280000e+03 2.260000e+03
    endloop
  endfacet
  facet normal -1.000000e+00 0.000000e+00 0.000000e+00
    outer loop
      vertex   1.240000e+03 3.280000e+03 1.400000e+03
      vertex   1.240000e+03 3.140000e+03 1.400000e+03
      vertex   1.240000e+03 3.140000e+03 2.260000e+03
    endloop
  endfacet
  facet normal -1.000000e+00 0.000000e+00 0.000000e+00
    outer loop
      vertex   1.240000e+03 3.140000e+03 2.260000e+03
      vertex   1.240000e+03 3.280000e+03 2.260000e+03
      vertex   1.240000e+03 3.280000e+03 1.400000e+03
    endloop
  endfacet
  facet normal 0.000000e+00 0.000000e+00 1.000000e+00
    outer loop
      vertex   6.100000e+02 3.280000e+03 1.400000e+03
      vertex   6.100000e+02 3.140000e+03 1.400000e+03
      vertex   1.240000e+03 3.140000e+03 1.400000e+03
    endloop
  endfacet
  facet normal 0.000000e+00 -0.000000e+00 1.000000e+00
    outer loop
      vertex   1.240000e+03 3.140000e+03 1.400000e+03
      vertex   1.240000e+03 3.280000e+03 1.400000e+03
      vertex   6.100000e+02 3.280000e+03 1.400000e+03
    endloop
  endfacet
  facet normal 3.524518e-16 0.000000e+00 1.000000e+00
    outer loop
      vertex   1.880000e+03 3.280000e+03 1.400000e+03
      vertex   1.880000e+03 3.140000e+03 1.400000e+03
      vertex   2.510000e+03 3.140000e+03 1.400000e+03
    endloop
  endfacet
  facet normal 3.524518e-16 -0.000000e+00 1.000000e+00
    outer loop
      vertex   2.510000e+03 3.140000e+03 1.400000e+03
      vertex   2.510000e+03 3.280000e+03 1.400000e+03
      vertex   1.880000e+03 3.280000e+03 1.400000e+03
    endloop
  endfacet
  facet normal 1.000000e+00 0.000000e+00 -2.581914e-16
    outer loop
      vertex   1.880000e+03 3.280000e+03 2.260000e+03
      vertex   1.880000e+03 3.140000e+03 2.260000e+03
      vertex   1.880000e+03 3.140000e+03 1.400000e+03
    endloop
  endfacet
  facet normal 1.000000e+00 0.000000e+00 -2.581914e-16
    outer loop
      vertex   1.880000e+03 3.140000e+03 1.400000e+03
      vertex   1.880000e+03 3.280000e+03 1.400000e+03
      vertex   1.880000e+03 3.280000e+03 2.260000e+03
    endloop
  endfacet
  facet normal -7.049035e-16 -0.000000e+00 -1.000000e+00
    outer loop
      vertex   2.510000e+03 3.280000e+03 2.260000e+03
      vertex   2.510000e+03 3.140000e+03 2.260000e+03
      vertex   1.880000e+03 3.140000e+03 2.260000e+03
    endloop
  endfacet
  facet normal -7.049035e-16 0.000000e+00 -1.000000e+00
    outer loop
      vertex   1.880000e+03 3.140000e+03 2.260000e+03
      vertex   1.880000e+03 3.280000e+03 2.260000e+03
      vertex   2.510000e+03 3.280000e+03 2.260000e+03
    endloop
  endfacet
  facet normal -1.000000e+00 0.000000e+00 0.000000e+00
    outer loop
      vertex   2.510000e+03 3.280000e+03 1.400000e+03
      vertex   2.510000e+03 3.140000e+03 1.400000e+03
      vertex   2.510000e+03 3.140000e+03 2.260000e+03
    endloop
  endfacet
  facet normal -1.000000e+00 0.000000e+00 0.000000e+00
    outer loop
      vertex   2.510000e+03 3.140000e+03 2.260000e+03
      vertex   2.510000e+03 3.280000e+03 2.260000e+03
      vertex   2.510000e+03 3.280000e+03 1.400000e+03
    endloop
  endfacet
endsolid
